<svg width="41" height="41" viewBox="0 0 41 41" fill="none" xmlns="http://www.w3.org/2000/svg">
<g clip-path="url(#clip0_3209_2611)">
<path fill-rule="evenodd" clip-rule="evenodd" d="M4.69141 19.571C4.69141 12.2992 10.5863 6.4043 17.8581 6.4043C22.5816 6.4043 26.7242 8.89162 29.0475 12.6279H31.3458C28.8265 7.74384 23.7323 4.4043 17.8581 4.4043C9.48175 4.4043 2.69141 11.1946 2.69141 19.571C2.69141 27.9473 9.48175 34.7376 17.8581 34.7376C21.6864 34.7376 25.1834 33.3192 27.8523 30.9793L32.9843 36.1114C33.3748 36.5019 34.008 36.5019 34.3985 36.1114C34.789 35.7209 34.789 35.0877 34.3985 34.6972L29.2665 29.565C29.9422 28.7943 30.5411 27.9545 31.0512 27.0576H28.6905C28.2788 27.6523 27.8193 28.2114 27.3177 28.7294C27.2587 28.7674 27.2028 28.8122 27.1511 28.8638C27.0995 28.9155 27.0547 28.9714 27.0167 29.0304C24.6469 31.3253 21.4174 32.7376 17.8581 32.7376C10.5863 32.7376 4.69141 26.8427 4.69141 19.571Z" fill="#2361A9"/>
<path d="M36.7629 18.8766C37.7602 18.9734 38.5203 19.2833 39.0432 19.8061C39.5661 20.3193 39.8275 20.9778 39.8275 21.7814C39.8275 22.3624 39.6823 22.8901 39.3918 23.3646C39.1013 23.8294 38.6656 24.2021 38.0846 24.483C37.5133 24.7541 36.8113 24.8896 35.9786 24.8896C35.2524 24.8896 34.5552 24.7831 33.8871 24.5701C33.4156 24.4129 33.0044 24.2148 32.6534 23.9756C32.4033 23.8052 32.3547 23.4681 32.507 23.2066C32.715 22.8494 33.2056 22.7797 33.5637 22.9861C33.7721 23.1062 34.0009 23.213 34.2502 23.3065C34.7924 23.5001 35.3686 23.597 35.9786 23.597C36.7339 23.597 37.3197 23.4372 37.736 23.1177C38.1621 22.7981 38.3751 22.3576 38.3751 21.796C38.3751 21.2344 38.1669 20.7986 37.7505 20.4888C37.3342 20.1789 36.7048 20.024 35.8624 20.024H35.7989C35.3848 20.024 35.049 19.6883 35.049 19.2741C35.049 19.1015 35.1086 18.9342 35.2176 18.8004L37.6053 15.8701H33.3424C32.9935 15.8701 32.7106 15.5872 32.7106 15.2383C32.7106 14.8893 32.9935 14.6064 33.3424 14.6064H38.6915C39.0943 14.6064 39.4208 14.933 39.4208 15.3358C39.4208 15.5029 39.3635 15.665 39.2583 15.7948L36.7629 18.8766Z" fill="#2361A9" stroke="#2361A9" stroke-width="0.5"/>
<path d="M26.5629 23.5098C26.9118 23.5098 27.1947 23.7927 27.1947 24.1416C27.1947 24.4905 26.9118 24.7734 26.5629 24.7734H20.5822C20.1994 24.7734 19.889 24.463 19.889 24.0802C19.889 23.892 19.9655 23.712 20.1009 23.5813L24.0284 19.7916C24.5319 19.3075 24.8708 18.8911 25.0451 18.5425C25.2194 18.1842 25.3065 17.826 25.3065 17.4677C25.3065 16.9352 25.1177 16.5236 24.7401 16.2331C24.3721 15.933 23.8396 15.7829 23.1424 15.7829C22.2876 15.7829 21.5814 15.996 21.0238 16.4222C20.7317 16.6455 20.3141 16.6885 20.0363 16.4475C19.7683 16.215 19.7309 15.806 19.9999 15.5746C20.3167 15.3021 20.6864 15.0762 21.109 14.8969C21.7578 14.6258 22.4792 14.4902 23.2731 14.4902C24.3383 14.4902 25.1855 14.7468 25.8149 15.26C26.4443 15.7635 26.759 16.451 26.759 17.3225C26.759 17.8647 26.6428 18.3779 26.4104 18.862C26.178 19.3462 25.7374 19.8981 25.0887 20.5178L21.9805 23.5098H26.5629Z" fill="#2361A9" stroke="#2361A9" stroke-width="0.5"/>
<path d="M11.477 14.6064C12.5077 14.6064 13.3433 15.442 13.3433 16.4728V24.0545C13.3433 24.4516 13.0214 24.7734 12.6244 24.7734C12.2273 24.7734 11.9054 24.4515 11.9054 24.0545V17.0175C11.9054 16.3838 11.3917 15.8701 10.758 15.8701H10.2424C9.89346 15.8701 9.6106 15.5872 9.6106 15.2383C9.6106 14.8893 9.89346 14.6064 10.2424 14.6064H11.477Z" fill="#2361A9" stroke="#2361A9" stroke-width="0.5"/>
</g>
<defs>
<clipPath id="clip0_3209_2611">
<rect width="40" height="40" fill="white" transform="translate(0.673462 0.404297)"/>
</clipPath>
</defs>
</svg>
