<svg width="41" height="40" viewBox="0 0 41 40" fill="none" xmlns="http://www.w3.org/2000/svg">
<path d="M33.5351 17.4997V11.333C33.5351 8.53275 33.5351 7.13261 32.9901 6.06306C32.5107 5.12224 31.7458 4.35734 30.805 3.87798C29.7355 3.33301 28.3353 3.33301 25.5351 3.33301H14.8684C12.0681 3.33301 10.668 3.33301 9.59846 3.87798C8.65765 4.35734 7.89274 5.12224 7.41338 6.06306C6.86841 7.13261 6.86841 8.53275 6.86841 11.333V28.6663C6.86841 31.4666 6.86841 32.8667 7.41338 33.9363C7.89274 34.8771 8.65765 35.642 9.59846 36.1214C10.668 36.6663 12.0681 36.6663 14.8684 36.6663H19.3684" stroke="#2361A9" stroke-width="2" stroke-linecap="round" stroke-linejoin="round"/>
<path d="M32.7928 34.5502L28.7367 30.4939M31.6339 23.5403C31.6339 28.9808 27.2235 33.3912 21.783 33.3912C16.3425 33.3912 11.9321 28.9808 11.9321 23.5403C11.9321 18.0998 16.3425 13.6895 21.783 13.6895C27.2235 13.6895 31.6339 18.0998 31.6339 23.5403Z" stroke="#2361A9" stroke-width="2" stroke-linecap="round" stroke-linejoin="round"/>
<path d="M18.761 26.3493C18.761 27.5806 19.836 28.5788 21.162 28.5788H23.5631C24.8891 28.5788 25.9641 27.5806 25.9641 26.3493C25.9641 25.1179 24.8891 24.1197 23.5631 24.1197H21.162C19.836 24.1197 18.761 23.1215 18.761 21.8902C18.761 20.6589 19.836 19.6607 21.162 19.6607H23.5631C24.8891 19.6607 25.9641 20.6589 25.9641 21.8902M22.3625 18.5459V29.6936" stroke="#2361A9" stroke-width="2" stroke-linecap="round" stroke-linejoin="round"/>
</svg>
