<svg width="41" height="40" viewBox="0 0 41 40" fill="none" xmlns="http://www.w3.org/2000/svg">
<path d="M36.9316 15.0293V10.3626C36.9316 8.49579 36.9316 7.56237 36.5683 6.84933C36.2487 6.22212 35.7388 5.71219 35.1116 5.39261C34.3985 5.0293 33.4651 5.0293 31.5983 5.0293H8.9316C7.06476 5.0293 6.13134 5.0293 5.4183 5.39261C4.79109 5.71219 4.28116 6.22212 3.96158 6.84933C3.59827 7.56237 3.59827 8.49579 3.59827 10.3626V16.3626C3.59827 18.2295 3.59827 19.1629 3.96158 19.8759C4.28116 20.5031 4.79109 21.0131 5.4183 21.3327C6.13134 21.696 7.06476 21.696 8.9316 21.696H18.5983M20.2649 13.3626H20.2733M28.5983 13.3626H28.6066M11.9316 13.3626H11.9399M20.6816 13.3626C20.6816 13.5927 20.4951 13.7793 20.2649 13.7793C20.0348 13.7793 19.8483 13.5927 19.8483 13.3626C19.8483 13.1325 20.0348 12.946 20.2649 12.946C20.4951 12.946 20.6816 13.1325 20.6816 13.3626ZM29.0149 13.3626C29.0149 13.5927 28.8284 13.7793 28.5983 13.7793C28.3681 13.7793 28.1816 13.5927 28.1816 13.3626C28.1816 13.1325 28.3681 12.946 28.5983 12.946C28.8284 12.946 29.0149 13.1325 29.0149 13.3626ZM12.3483 13.3626C12.3483 13.5927 12.1617 13.7793 11.9316 13.7793C11.7015 13.7793 11.5149 13.5927 11.5149 13.3626C11.5149 13.1325 11.7015 12.946 11.9316 12.946C12.1617 12.946 12.3483 13.1325 12.3483 13.3626Z" stroke="#2361A9" stroke-width="2" stroke-linecap="round" stroke-linejoin="round"/>
<path d="M24.2885 24.8188V21.7732C24.2885 18.9698 26.5611 16.6973 29.3644 16.6973C31.8202 16.6973 33.8686 18.4411 34.3389 20.758M26.1158 34.9707H32.6131C34.3187 34.9707 35.1716 34.9707 35.8231 34.6388C36.3961 34.3468 36.862 33.8809 37.154 33.3078C37.486 32.6563 37.486 31.8035 37.486 30.0978V29.6917C37.486 27.986 37.486 27.1332 37.154 26.4817C36.862 25.9086 36.3961 25.4427 35.8231 25.1507C35.1716 24.8188 34.3187 24.8188 32.6131 24.8188H26.1158C24.4102 24.8188 23.5573 24.8188 22.9058 25.1507C22.3328 25.4427 21.8669 25.9086 21.5749 26.4817C21.2429 27.1332 21.2429 27.986 21.2429 29.6917V30.0978C21.2429 31.8035 21.2429 32.6563 21.5749 33.3078C21.8669 33.8809 22.3328 34.3468 22.9058 34.6388C23.5573 34.9707 24.4102 34.9707 26.1158 34.9707Z" stroke="#2361A9" stroke-width="2" stroke-linecap="round" stroke-linejoin="round"/>
</svg>
