<svg width="41" height="40" viewBox="0 0 41 40" fill="none" xmlns="http://www.w3.org/2000/svg">
<path d="M34.17 17.4997V11.333C34.17 8.53275 34.17 7.13261 33.625 6.06306C33.1456 5.12224 32.3807 4.35734 31.4399 3.87798C30.3704 3.33301 28.9702 3.33301 26.17 3.33301H15.5033C12.703 3.33301 11.3029 3.33301 10.2333 3.87798C9.29253 4.35734 8.52763 5.12224 8.04826 6.06306C7.5033 7.13261 7.5033 8.53275 7.5033 11.333V28.6663C7.5033 31.4666 7.5033 32.8667 8.04826 33.9363C8.52763 34.8771 9.29253 35.642 10.2333 36.1214C11.3029 36.6663 12.703 36.6663 15.5033 36.6663H20.0033M37.5033 36.6663L35.0033 34.1663M36.67 29.9997C36.67 33.2213 34.0583 35.833 30.8366 35.833C27.615 35.833 25.0033 33.2213 25.0033 29.9997C25.0033 26.778 27.615 24.1663 30.8366 24.1663C34.0583 24.1663 36.67 26.778 36.67 29.9997Z" stroke="#2361A9" stroke-width="2" stroke-linecap="round" stroke-linejoin="round"/>
<path d="M12.5139 12.1943L14.5139 14.1943L19.0139 9.69434" stroke="#2361A9" stroke-width="2" stroke-linecap="round" stroke-linejoin="round"/>
<path d="M12.5139 22.5L14.5139 24.5L19.0139 20" stroke="#2361A9" stroke-width="2" stroke-linecap="round" stroke-linejoin="round"/>
</svg>
