<svg width="24" height="23" viewBox="0 0 24 23" fill="none" xmlns="http://www.w3.org/2000/svg">
<g clip-path="url(#clip0_4883_3664)">
<path fill-rule="evenodd" clip-rule="evenodd" d="M0.401821 15.1049C0.136579 14.4882 -1.95885e-07 13.8266 -2.25762e-07 13.1583C-2.55638e-07 12.49 0.136579 11.8283 0.401821 11.2117C0.667062 10.595 1.05569 10.0356 1.54517 9.56596C2.03466 9.09627 2.61526 8.72563 3.25333 8.47551C3.88955 8.22612 4.57028 8.1015 5.25628 8.10882L16.9371 8.11664L16.9445 8.11676C17.8562 8.13074 18.7256 8.4923 19.3652 9.12339C20.0048 9.75448 20.3632 10.6045 20.3632 11.4901C20.3632 12.3756 20.0048 13.2256 19.3652 13.8567C18.7256 14.4878 17.8562 14.8494 16.9445 14.8634L16.9367 14.8635L8.01892 14.8635C7.47159 14.8635 7.02789 14.4325 7.02789 13.9009C7.02789 13.3693 7.47159 12.9384 8.01892 12.9384L16.9201 12.9384C17.309 12.9307 17.6796 12.7757 17.9526 12.5063C18.2273 12.2353 18.3812 11.8703 18.3812 11.4901C18.3812 11.1098 18.2273 10.7448 17.9526 10.4738C17.6795 10.2044 17.3088 10.0493 16.9198 10.0417L5.24388 10.0339L5.23821 10.0338C4.81248 10.0288 4.38996 10.1059 3.99514 10.2607C3.60032 10.4155 3.24105 10.6448 2.93817 10.9354C2.63529 11.2261 2.39482 11.5722 2.23069 11.9538C2.06657 12.3353 1.98206 12.7447 1.98206 13.1583C1.98206 13.5718 2.06657 13.9812 2.23069 14.3628C2.39482 14.7443 2.63529 15.0905 2.93817 15.3811C3.24105 15.6717 3.60032 15.9011 3.99514 16.0558C4.38996 16.2106 4.81248 16.2877 5.23821 16.2827L5.24422 16.2826L17.0147 16.2826L17.0219 16.2827C17.6746 16.2919 18.3226 16.175 18.9283 15.9387C19.534 15.7025 20.0853 15.3517 20.5502 14.9066C21.0151 14.4616 21.3843 13.9313 21.6362 13.3464C21.8882 12.7616 22.0179 12.1339 22.0179 11.5C22.0179 10.866 21.8882 10.2384 21.6362 9.65354C21.3843 9.06871 21.0151 8.53836 20.5502 8.09333C20.0853 7.6483 19.534 7.29747 18.9283 7.06123C18.3226 6.82499 17.6746 6.70806 17.0219 6.71724L17.0147 6.71734L6.02076 6.71734C5.47343 6.71734 5.02973 6.28639 5.02973 5.75479C5.02973 5.22319 5.47343 4.79225 6.02076 4.79225L17.0007 4.79225C17.9135 4.78038 18.8197 4.94438 19.6669 5.27479C20.5164 5.60611 21.2896 6.09814 21.9416 6.72228C22.5935 7.34641 23.1113 8.09021 23.4646 8.91041C23.818 9.73061 24 10.6109 24 11.5C24 12.3891 23.818 13.2693 23.4646 14.0896C23.1113 14.9098 22.5935 15.6535 21.9416 16.2777C21.2896 16.9018 20.5164 17.3939 19.6669 17.7252C18.8197 18.0556 17.9135 18.2196 17.0007 18.2077L5.25593 18.2077C4.57005 18.215 3.88944 18.0904 3.25333 17.841C2.61526 17.5909 2.03466 17.2203 1.54517 16.7506C1.05569 16.2809 0.667062 15.7215 0.401821 15.1049Z" fill="#2361A9"/>
</g>
<defs>
<clipPath id="clip0_4883_3664">
<rect width="23" height="24" fill="white" transform="translate(0 23) rotate(-90)"/>
</clipPath>
</defs>
</svg>
