<svg width="39" height="39" viewBox="0 0 39 39" fill="none" xmlns="http://www.w3.org/2000/svg">
<path d="M36.9364 10H16.9364M25.9364 19L33.7364 19C34.8565 19 35.4166 19 35.8444 18.782C36.2207 18.5903 36.5267 18.2843 36.7184 17.908C36.9364 17.4802 36.9364 16.9201 36.9364 15.8V8.2C36.9364 7.0799 36.9364 6.51984 36.7184 6.09202C36.5267 5.7157 36.2207 5.40974 35.8444 5.21799C35.4166 5 34.8565 5 33.7364 5H31.9364M25.9364 19L27.9364 21M25.9364 19L27.9364 17M21.9364 19H20.1364C19.0163 19 18.4562 19 18.0284 18.782C17.6521 18.5903 17.3461 18.2843 17.1544 17.908C16.9364 17.4802 16.9364 16.9201 16.9364 15.8V8.2C16.9364 7.0799 16.9364 6.51984 17.1544 6.09202C17.3461 5.71569 17.6521 5.40973 18.0284 5.21799C18.4562 5 19.0163 5 20.1364 5H27.9364M27.9364 5L25.9364 7M27.9364 5L25.9364 3" stroke="#2361A9" stroke-width="2" stroke-linecap="round" stroke-linejoin="round"/>
<path d="M19.1765 22.9658L10.5132 27.7788M10.5132 27.7788L1.8499 22.9658M10.5132 27.7788L10.5132 37.4613M19.6862 31.9153V23.6423C19.6862 23.293 19.6862 23.1184 19.6347 22.9627C19.5892 22.8249 19.5148 22.6985 19.4164 22.5918C19.3053 22.4711 19.1527 22.3863 18.8474 22.2167L11.3052 18.0267C11.0161 17.8661 10.8716 17.7858 10.7186 17.7543C10.5831 17.7264 10.4434 17.7264 10.3079 17.7543C10.1549 17.7858 10.0103 17.8661 9.72129 18.0267L2.17911 22.2167C1.87384 22.3863 1.7212 22.4711 1.61005 22.5918C1.51172 22.6985 1.43731 22.8249 1.39179 22.9627C1.34033 23.1184 1.34033 23.293 1.34033 23.6423V31.9153C1.34033 32.2646 1.34033 32.4392 1.39179 32.5949C1.43731 32.7327 1.51172 32.8591 1.61005 32.9658C1.7212 33.0865 1.87384 33.1713 2.17912 33.3409L9.72129 37.5309C10.0103 37.6915 10.1549 37.7718 10.3079 37.8033C10.4434 37.8312 10.5831 37.8312 10.7186 37.8033C10.8716 37.7718 11.0161 37.6915 11.3052 37.5309L18.8474 33.3409C19.1527 33.1713 19.3053 33.0865 19.4164 32.9658C19.5148 32.8591 19.5892 32.7327 19.6347 32.5949C19.6862 32.4392 19.6862 32.2646 19.6862 31.9153Z" stroke="#2361A9" stroke-width="2" stroke-linecap="round" stroke-linejoin="round"/>
</svg>
