<svg width="39" height="39" viewBox="0 0 39 39" fill="none" xmlns="http://www.w3.org/2000/svg">
<path d="M19.2077 22.8232L10.7077 27.5455M10.7077 27.5455L2.20773 22.8232M10.7077 27.5455L10.7078 37.0455M19.7078 31.604V23.4869C19.7078 23.1443 19.7078 22.973 19.6573 22.8202C19.6126 22.685 19.5396 22.5609 19.4431 22.4562C19.3341 22.3379 19.1843 22.2547 18.8848 22.0883L11.4848 17.9772C11.2012 17.8196 11.0594 17.7408 10.9092 17.71C10.7763 17.6826 10.6392 17.6826 10.5063 17.71C10.3561 17.7408 10.2143 17.8196 9.93074 17.9772L2.53073 22.0883C2.23121 22.2547 2.08145 22.3379 1.9724 22.4562C1.87592 22.5609 1.80291 22.685 1.75825 22.8202C1.70776 22.973 1.70776 23.1443 1.70776 23.4869V31.604C1.70776 31.9467 1.70776 32.118 1.75825 32.2708C1.80291 32.406 1.87592 32.5301 1.9724 32.6348C2.08145 32.7531 2.23121 32.8363 2.53074 33.0027L9.93074 37.1138C10.2143 37.2714 10.3561 37.3501 10.5063 37.381C10.6392 37.4084 10.7763 37.4084 10.9092 37.381C11.0594 37.3501 11.2012 37.2714 11.4848 37.1138L18.8848 33.0027C19.1843 32.8363 19.3341 32.7531 19.4431 32.6348C19.5396 32.5301 19.6126 32.406 19.6573 32.2708C19.7078 32.118 19.7078 31.9467 19.7078 31.604Z" stroke="#2361A9" stroke-width="2" stroke-linecap="round" stroke-linejoin="round"/>
<path d="M14.3909 14.1663C14.3528 13.7826 14.3333 13.3934 14.3333 12.9997C14.3333 6.55635 19.5566 1.33301 26 1.33301C32.4433 1.33301 37.6666 6.55635 37.6666 12.9997C37.6666 19.443 32.4433 24.6663 26 24.6663C25.8044 24.6663 25.6099 24.6615 25.4166 24.652C25.2209 24.6424 25.0264 24.6279 24.8333 24.6087M26 5.99967V12.9997L21.6385 15.1804" stroke="#2361A9" stroke-width="2" stroke-linecap="round" stroke-linejoin="round"/>
</svg>
