<svg width="41" height="41" viewBox="0 0 41 41" fill="none" xmlns="http://www.w3.org/2000/svg">
<g clip-path="url(#clip0_3209_2215)">
<path d="M39.7633 16.7568L35.1053 14.5572L39.7633 12.3576C39.9632 12.2632 40.0907 12.062 40.0907 11.8409C40.0907 11.6199 39.9632 11.4186 39.7633 11.3242L26.5835 5.10063C26.4289 5.02765 26.25 5.02765 26.0954 5.10063L20.5872 7.70176L15.0791 5.10063C14.9246 5.02765 14.7455 5.02765 14.5911 5.10063C14.5911 5.10063 12.2891 6.18764 12.2762 6.19373C11.613 6.50696 12.0912 7.54484 12.7642 7.22711L14.8352 6.24919L19.2492 8.33355L7.40755 13.9254L2.99355 11.8409C2.99355 11.8409 13.7592 6.75727 13.7997 6.73815C14.4559 6.42827 13.9875 5.38567 13.3119 5.70469C13.3119 5.70469 1.43951 11.311 1.41148 11.3242C0.981172 11.5274 0.982163 12.1549 1.41141 12.3576L6.06939 14.5572C6.06939 14.5572 1.42138 16.7521 1.41148 16.7568C0.983305 16.9589 0.982696 17.5877 1.41141 17.7901L6.83609 20.3518V29.6362C6.83609 29.8573 6.9636 30.0586 7.16356 30.1529L20.3433 36.3766C20.3452 36.3775 20.3473 36.3781 20.3492 36.379C20.3553 36.3818 20.3615 36.3839 20.3677 36.3865C20.3845 36.3935 20.4015 36.3998 20.4187 36.4052C20.4266 36.4076 20.4344 36.4097 20.4424 36.4118C20.4591 36.4162 20.476 36.4197 20.493 36.4226C20.5003 36.4238 20.5076 36.4254 20.5149 36.4263C20.5389 36.4293 20.5631 36.4313 20.5873 36.4313C20.6115 36.4313 20.6356 36.4293 20.6597 36.4263C20.6671 36.4253 20.6743 36.4238 20.6816 36.4226C20.6986 36.4197 20.7154 36.4163 20.7322 36.4118C20.7401 36.4097 20.748 36.4075 20.756 36.4052C20.7733 36.3998 20.7902 36.3935 20.8071 36.3864C20.8132 36.3838 20.8193 36.3817 20.8254 36.379C20.8273 36.3781 20.8293 36.3774 20.8313 36.3765L34.0111 30.1529C34.211 30.0585 34.3385 29.8572 34.3385 29.6362V20.3518C34.3385 20.3518 39.7424 17.8 39.7631 17.7902C40.1935 17.5869 40.1924 16.9595 39.7633 16.7568ZM26.3394 6.24919L38.181 11.841L33.767 13.9254L21.9255 8.33355L26.3394 6.24919ZM2.99362 17.2734L7.40762 15.1891L19.2492 20.7809L14.8352 22.8653L2.99362 17.2734ZM20.0159 34.9582L7.97893 29.2741V20.8915L14.5912 24.0139C14.743 24.0856 14.9272 24.0857 15.0791 24.0139L20.0159 21.6827V34.9582ZM20.5872 20.149L8.74563 14.5572L20.5872 8.96541L32.4289 14.5572L20.5872 20.149ZM21.1586 34.9582V21.6827L26.0954 24.0139C26.2484 24.0861 26.4304 24.0851 26.5834 24.0139L33.1955 20.8915V29.2742L21.1586 34.9582ZM26.3394 22.8653L21.9254 20.7809L33.767 15.1891L38.181 17.2734L26.3394 22.8653Z" fill="#2361A9" stroke="#2361A9" stroke-width="0.7"/>
</g>
<defs>
<clipPath id="clip0_3209_2215">
<rect width="40" height="40" fill="white" transform="translate(0.59082 0.738281)"/>
</clipPath>
</defs>
</svg>
