<svg width="41" height="40" viewBox="0 0 41 40" fill="none" xmlns="http://www.w3.org/2000/svg">
<g clip-path="url(#clip0_3209_2389)">
<path fill-rule="evenodd" clip-rule="evenodd" d="M39.8105 10.193C39.8804 10.3027 39.9211 10.4318 39.9283 10.5615L39.9304 10.6044V12.6749C39.9304 14.9113 38.3006 16.773 36.1666 17.1377V18.9611V25.1137V30.1086C36.1666 30.5311 35.8241 30.8736 35.4016 30.8736H32.9742V29.3436H34.6366V20.0655V18.9611V17.1391C33.4244 16.9319 32.3241 16.2139 31.6393 15.1934C30.8024 16.4395 29.375 17.2037 27.874 17.2037C26.3751 17.2037 24.9474 16.4361 24.1117 15.1934C23.2746 16.4395 21.8474 17.2037 20.3463 17.2037C18.8474 17.2037 17.4197 16.4361 16.584 15.1934C15.747 16.4395 14.3198 17.2037 12.8187 17.2037C11.3192 17.2037 9.89192 16.4364 9.05639 15.1935C8.37071 16.2145 7.26872 16.9304 6.05604 17.1377V29.3436H7.63732V30.8735H5.29103C4.86852 30.8735 4.52603 30.5309 4.52603 30.1085V17.1377C2.39205 16.7729 0.762207 14.9112 0.762207 12.6748V10.6043C0.762207 10.4586 0.805889 10.3106 0.885143 10.1884L6.98016 0.779736C7.12115 0.562092 7.3629 0.430664 7.62223 0.430664H33.1671C33.4284 0.430664 33.6717 0.564081 33.8122 0.784402L39.8105 10.193ZM32.1623 9.8393H37.7705L32.7477 1.96067H29.1173L32.1623 9.8393ZM27.874 15.6737C29.4396 15.6737 30.7771 14.4123 30.8674 12.8494C30.8719 12.7914 30.8738 12.7332 30.8728 12.6749V11.3694H24.8751V12.6749C24.8751 14.3284 26.2204 15.6737 27.874 15.6737ZM20.3463 15.6737C21.9119 15.6737 23.2495 14.4123 23.3397 12.8495C23.3443 12.7914 23.3461 12.7332 23.3451 12.6749V11.3694H17.3475V12.6749C17.3475 14.3284 18.6928 15.6737 20.3463 15.6737ZM12.8187 15.6737C14.3843 15.6737 15.7219 14.4123 15.8121 12.8495C15.8167 12.7914 15.8185 12.7332 15.8175 12.6749V11.3694H9.81986V12.6749C9.81986 14.3284 11.1651 15.6737 12.8187 15.6737ZM21.9874 1.96067H18.6151L17.467 9.8393H23.2165L21.9874 1.96067ZM30.522 9.8393L27.477 1.96067H23.536L24.765 9.8393H30.522ZM10.1814 9.8393H15.9208L17.069 1.96067H13.3074L10.1814 9.8393ZM11.6613 1.96067H8.03816L2.93428 9.8393H8.53534L11.6613 1.96067ZM2.29222 11.3694V12.6749C2.29222 14.3167 3.61866 15.6539 5.25615 15.6728C6.89785 15.5981 8.28985 14.3726 8.28985 12.6749V11.3694H2.29222ZM35.4016 15.6737C37.0552 15.6737 38.4004 14.3284 38.4004 12.6749V11.3694H32.4028V12.6749C32.4028 14.3284 33.7481 15.6737 35.4016 15.6737Z" fill="#2361A9"/>
<path d="M39.9283 10.5615L40.128 10.5515L40.128 10.5504L39.9283 10.5615ZM39.8105 10.193L39.9791 10.0855L39.9791 10.0855L39.8105 10.193ZM39.9304 10.6044H40.1307L40.1302 10.5944L39.9304 10.6044ZM36.1666 17.1377L36.1329 16.9406L35.9666 16.969V17.1377H36.1666ZM32.9742 30.8736H32.7742V31.0736H32.9742V30.8736ZM32.9742 29.3436V29.1436H32.7742V29.3436H32.9742ZM34.6366 29.3436V29.5436H34.8366V29.3436H34.6366ZM34.6366 17.1391H34.8366V16.9704L34.6703 16.942L34.6366 17.1391ZM31.6393 15.1934L31.8054 15.082L31.6394 14.8346L31.4733 15.0819L31.6393 15.1934ZM24.1117 15.1934L24.2776 15.0818L24.1116 14.8349L23.9457 15.0819L24.1117 15.1934ZM16.584 15.1934L16.75 15.0818L16.5839 14.8349L16.418 15.0819L16.584 15.1934ZM9.05639 15.1935L9.22237 15.0819L9.0563 14.8349L8.89035 15.082L9.05639 15.1935ZM6.05604 17.1377L6.02234 16.9406L5.85604 16.969V17.1377H6.05604ZM6.05604 29.3436H5.85604V29.5436H6.05604V29.3436ZM7.63732 29.3436H7.83732V29.1436H7.63732V29.3436ZM7.63732 30.8735V31.0735H7.83732V30.8735H7.63732ZM4.52603 17.1377H4.72603V16.969L4.55973 16.9405L4.52603 17.1377ZM0.885143 10.1884L1.05293 10.2973L1.053 10.2972L0.885143 10.1884ZM6.98016 0.779736L7.14802 0.888474V0.888474L6.98016 0.779736ZM33.8122 0.784402L33.6435 0.891915V0.891918L33.8122 0.784402ZM37.7705 9.8393V10.0393H38.1351L37.9391 9.73179L37.7705 9.8393ZM32.1623 9.8393L31.9757 9.9114L32.0252 10.0393H32.1623V9.8393ZM32.7477 1.96067L32.9163 1.85316L32.8573 1.76067H32.7477V1.96067ZM29.1173 1.96067V1.76067H28.8256L28.9308 2.03277L29.1173 1.96067ZM30.8674 12.8494L30.6679 12.8337L30.6677 12.8379L30.8674 12.8494ZM30.8728 12.6749H30.6728L30.6728 12.6783L30.8728 12.6749ZM30.8728 11.3694H31.0728V11.1694H30.8728V11.3694ZM24.8751 11.3694V11.1694H24.6751V11.3694H24.8751ZM23.3397 12.8495L23.1403 12.8338L23.14 12.838L23.3397 12.8495ZM23.3451 12.6749H23.1451L23.1452 12.6783L23.3451 12.6749ZM23.3451 11.3694H23.5451V11.1694H23.3451V11.3694ZM17.3475 11.3694V11.1694H17.1475V11.3694H17.3475ZM15.8121 12.8495L15.6126 12.8338L15.6124 12.838L15.8121 12.8495ZM15.8175 12.6749H15.6175L15.6175 12.6783L15.8175 12.6749ZM15.8175 11.3694H16.0175V11.1694H15.8175V11.3694ZM9.81986 11.3694V11.1694H9.61986V11.3694H9.81986ZM18.6151 1.96067V1.76067H18.4421L18.4172 1.93183L18.6151 1.96067ZM21.9874 1.96067L22.185 1.92985L22.1586 1.76067H21.9874V1.96067ZM17.467 9.8393L17.2691 9.81046L17.2357 10.0393H17.467V9.8393ZM23.2165 9.8393V10.0393H23.4501L23.4141 9.80847L23.2165 9.8393ZM27.477 1.96067L27.6636 1.88857L27.6141 1.76067H27.477V1.96067ZM30.522 9.8393V10.0393H30.8137L30.7085 9.7672L30.522 9.8393ZM23.536 1.96067V1.76067H23.3024L23.3384 1.9915L23.536 1.96067ZM24.765 9.8393L24.5674 9.87012L24.5938 10.0393H24.765V9.8393ZM15.9208 9.8393V10.0393H16.0938L16.1188 9.86814L15.9208 9.8393ZM10.1814 9.8393L9.9955 9.76554L9.88688 10.0393H10.1814V9.8393ZM17.069 1.96067L17.2669 1.98951L17.3002 1.76067H17.069V1.96067ZM13.3074 1.96067V1.76067H13.1715L13.1215 1.88691L13.3074 1.96067ZM8.03816 1.96067V1.76067H7.92943L7.87031 1.85193L8.03816 1.96067ZM11.6613 1.96067L11.8472 2.03443L11.9558 1.76067H11.6613V1.96067ZM2.93428 9.8393L2.76643 9.73056L2.56642 10.0393H2.93428V9.8393ZM8.53534 9.8393V10.0393H8.67116L8.72124 9.91306L8.53534 9.8393ZM2.29222 11.3694V11.1694H2.09222V11.3694H2.29222ZM5.25615 15.6728L5.25384 15.8732L5.26524 15.8726L5.25615 15.6728ZM8.28985 11.3694H8.48985V11.1694H8.28985V11.3694ZM38.4004 11.3694H38.6004V11.1694H38.4004V11.3694ZM32.4028 11.3694V11.1694H32.2028V11.3694H32.4028ZM40.128 10.5504C40.1189 10.3873 40.0679 10.2249 39.9791 10.0855L39.6418 10.3005C39.6929 10.3806 39.7233 10.4763 39.7286 10.5725L40.128 10.5504ZM40.1302 10.5944L40.128 10.5515L39.7285 10.5714L39.7307 10.6144L40.1302 10.5944ZM40.1304 12.6749V10.6044H39.7304V12.6749H40.1304ZM36.2003 17.3349C38.4285 16.954 40.1304 15.0106 40.1304 12.6749H39.7304C39.7304 14.812 38.1727 16.592 36.1329 16.9406L36.2003 17.3349ZM36.3666 18.9611V17.1377H35.9666V18.9611H36.3666ZM36.3666 25.1137V18.9611H35.9666V25.1137H36.3666ZM36.3666 30.1086V25.1137H35.9666V30.1086H36.3666ZM35.4016 31.0736C35.9346 31.0736 36.3666 30.6415 36.3666 30.1086H35.9666C35.9666 30.4206 35.7137 30.6736 35.4016 30.6736V31.0736ZM32.9742 31.0736H35.4016V30.6736H32.9742V31.0736ZM32.7742 29.3436V30.8736H33.1742V29.3436H32.7742ZM34.6366 29.1436H32.9742V29.5436H34.6366V29.1436ZM34.4366 20.0655V29.3436H34.8366V20.0655H34.4366ZM34.4366 18.9611V20.0655H34.8366V18.9611H34.4366ZM34.4366 17.1391V18.9611H34.8366V17.1391H34.4366ZM31.4732 15.3048C32.1882 16.3704 33.3361 17.1197 34.6029 17.3363L34.6703 16.942C33.5126 16.7441 32.4599 16.0574 31.8054 15.082L31.4732 15.3048ZM27.874 17.4037C29.4419 17.4037 30.9315 16.6061 31.8053 15.3049L31.4733 15.0819C30.6733 16.273 29.308 17.0037 27.874 17.0037V17.4037ZM23.9457 15.305C24.8182 16.6024 26.3079 17.4037 27.874 17.4037V17.0037C26.4423 17.0037 25.0765 16.2697 24.2776 15.0818L23.9457 15.305ZM20.3463 17.4037C21.9144 17.4037 23.4037 16.606 24.2777 15.3049L23.9457 15.0819C23.1456 16.2729 21.7805 17.0037 20.3463 17.0037V17.4037ZM16.4181 15.305C17.2906 16.6024 18.7802 17.4037 20.3463 17.4037V17.0037C18.9147 17.0037 17.5489 16.2697 16.75 15.0818L16.4181 15.305ZM12.8187 17.4037C14.3867 17.4037 15.876 16.606 16.75 15.3049L16.418 15.0819C15.6179 16.2729 14.2528 17.0037 12.8187 17.0037V17.4037ZM8.8904 15.3051C9.76277 16.6028 11.252 17.4037 12.8187 17.4037V17.0037C11.3864 17.0037 10.0211 16.27 9.22237 15.0819L8.8904 15.3051ZM6.08974 17.3349C7.35666 17.1183 8.50637 16.3713 9.22242 15.305L8.89035 15.082C8.23506 16.0578 7.18079 16.7426 6.02234 16.9406L6.08974 17.3349ZM6.25604 29.3436V17.1377H5.85604V29.3436H6.25604ZM7.63732 29.1436H6.05604V29.5436H7.63732V29.1436ZM7.83732 30.8735V29.3436H7.43732V30.8735H7.83732ZM5.29103 31.0735H7.63732V30.6735H5.29103V31.0735ZM4.32603 30.1085C4.32603 30.6414 4.75805 31.0735 5.29103 31.0735V30.6735C4.97899 30.6735 4.72603 30.4205 4.72603 30.1085H4.32603ZM4.32603 17.1377V30.1085H4.72603V17.1377H4.32603ZM0.562207 12.6748C0.562207 15.0105 2.26414 16.954 4.49233 17.3348L4.55973 16.9405C2.51996 16.5919 0.962207 14.8119 0.962207 12.6748H0.562207ZM0.562207 10.6043V12.6748H0.962207V10.6043H0.562207ZM0.717356 10.0796C0.617012 10.2343 0.562207 10.4201 0.562207 10.6043H0.962207C0.962207 10.4972 0.994765 10.387 1.05293 10.2973L0.717356 10.0796ZM6.81231 0.670997L0.717286 10.0797L1.053 10.2972L7.14802 0.888474L6.81231 0.670997ZM7.62223 0.230664C7.29509 0.230664 6.99016 0.396442 6.81231 0.670997L7.14802 0.888474C7.25214 0.727741 7.4307 0.630664 7.62223 0.630664V0.230664ZM33.1671 0.230664H7.62223V0.630664H33.1671V0.230664ZM33.9808 0.676889C33.8036 0.398955 33.4968 0.230664 33.1671 0.230664V0.630664C33.3601 0.630664 33.5398 0.729207 33.6435 0.891915L33.9808 0.676889ZM39.9791 10.0855L33.9808 0.676887L33.6435 0.891918L39.6418 10.3006L39.9791 10.0855ZM37.7705 9.6393H32.1623V10.0393H37.7705V9.6393ZM32.579 2.06819L37.6018 9.94681L37.9391 9.73179L32.9163 1.85316L32.579 2.06819ZM29.1173 2.16067H32.7477V1.76067H29.1173V2.16067ZM32.3488 9.7672L29.3039 1.88857L28.9308 2.03277L31.9757 9.9114L32.3488 9.7672ZM30.6677 12.8379C30.5835 14.2948 29.3337 15.4737 27.874 15.4737V15.8737C29.5455 15.8737 30.9706 14.5297 31.067 12.861L30.6677 12.8379ZM30.6728 12.6783C30.6737 12.7301 30.6721 12.7819 30.668 12.8337L31.0667 12.8652C31.0718 12.8008 31.0739 12.7362 31.0728 12.6715L30.6728 12.6783ZM30.6728 11.3694V12.6749H31.0728V11.3694H30.6728ZM24.8751 11.5694H30.8728V11.1694H24.8751V11.5694ZM25.0751 12.6749V11.3694H24.6751V12.6749H25.0751ZM27.874 15.4737C26.3309 15.4737 25.0751 14.218 25.0751 12.6749H24.6751C24.6751 14.4389 26.11 15.8737 27.874 15.8737V15.4737ZM23.14 12.838C23.056 14.2949 21.806 15.4737 20.3463 15.4737V15.8737C22.0178 15.8737 23.4431 14.5298 23.5394 12.861L23.14 12.838ZM23.1452 12.6783C23.1461 12.7301 23.1444 12.7819 23.1403 12.8338L23.5391 12.8653C23.5442 12.8008 23.5462 12.7362 23.5451 12.6715L23.1452 12.6783ZM23.1451 11.3694V12.6749H23.5451V11.3694H23.1451ZM17.3475 11.5694H23.3451V11.1694H17.3475V11.5694ZM17.5475 12.6749V11.3694H17.1475V12.6749H17.5475ZM20.3463 15.4737C18.8032 15.4737 17.5475 14.218 17.5475 12.6749H17.1475C17.1475 14.4389 18.5823 15.8737 20.3463 15.8737V15.4737ZM15.6124 12.838C15.5283 14.2949 14.2784 15.4737 12.8187 15.4737V15.8737C14.4901 15.8737 15.9154 14.5298 16.0117 12.861L15.6124 12.838ZM15.6175 12.6783C15.6184 12.7301 15.6168 12.7819 15.6127 12.8338L16.0114 12.8653C16.0165 12.8008 16.0186 12.7362 16.0175 12.6715L15.6175 12.6783ZM15.6175 11.3694V12.6749H16.0175V11.3694H15.6175ZM9.81986 11.5694H15.8175V11.1694H9.81986V11.5694ZM10.0199 12.6749V11.3694H9.61986V12.6749H10.0199ZM12.8187 15.4737C11.2756 15.4737 10.0199 14.218 10.0199 12.6749H9.61986C9.61986 14.4389 11.0547 15.8737 12.8187 15.8737V15.4737ZM18.6151 2.16067H21.9874V1.76067H18.6151V2.16067ZM17.6649 9.86814L18.813 1.98951L18.4172 1.93183L17.2691 9.81046L17.6649 9.86814ZM23.2165 9.6393H17.467V10.0393H23.2165V9.6393ZM21.7898 1.9915L23.0189 9.87013L23.4141 9.80847L22.185 1.92985L21.7898 1.9915ZM27.2905 2.03277L30.3354 9.9114L30.7085 9.7672L27.6636 1.88857L27.2905 2.03277ZM23.536 2.16067H27.477V1.76067H23.536V2.16067ZM24.9626 9.80848L23.7336 1.92985L23.3384 1.9915L24.5674 9.87012L24.9626 9.80848ZM30.522 9.6393H24.765V10.0393H30.522V9.6393ZM15.9208 9.6393H10.1814V10.0393H15.9208V9.6393ZM16.8711 1.93183L15.7229 9.81046L16.1188 9.86814L17.2669 1.98951L16.8711 1.93183ZM13.3074 2.16067H17.069V1.76067H13.3074V2.16067ZM10.3673 9.91306L13.4933 2.03443L13.1215 1.88691L9.9955 9.76554L10.3673 9.91306ZM8.03816 2.16067H11.6613V1.76067H8.03816V2.16067ZM3.10214 9.94804L8.20602 2.06941L7.87031 1.85193L2.76643 9.73056L3.10214 9.94804ZM8.53534 9.6393H2.93428V10.0393H8.53534V9.6393ZM11.4754 1.88691L8.34944 9.76554L8.72124 9.91306L11.8472 2.03443L11.4754 1.88691ZM2.49222 12.6749V11.3694H2.09222V12.6749H2.49222ZM5.25846 15.4729C3.7303 15.4552 2.49222 14.2069 2.49222 12.6749H2.09222C2.09222 14.4265 3.50701 15.8527 5.25384 15.8728L5.25846 15.4729ZM8.08985 12.6749C8.08985 14.249 6.79934 15.4024 5.24705 15.473L5.26524 15.8726C6.99636 15.7938 8.48985 14.4961 8.48985 12.6749H8.08985ZM8.08985 11.3694V12.6749H8.48985V11.3694H8.08985ZM2.29222 11.5694H8.28985V11.1694H2.29222V11.5694ZM38.2004 12.6749C38.2004 14.218 36.9447 15.4737 35.4016 15.4737V15.8737C37.1656 15.8737 38.6004 14.4389 38.6004 12.6749H38.2004ZM38.2004 11.3694V12.6749H38.6004V11.3694H38.2004ZM32.4028 11.5694H38.4004V11.1694H32.4028V11.5694ZM32.6028 12.6749V11.3694H32.2028V12.6749H32.6028ZM35.4016 15.4737C33.8585 15.4737 32.6028 14.218 32.6028 12.6749H32.2028C32.2028 14.4389 33.6376 15.8737 35.4016 15.8737V15.4737Z" fill="#2361A9"/>
<path d="M28.8462 23.5957L20.3462 28.3179M20.3462 28.3179L11.8462 23.5957M20.3462 28.3179L20.3462 37.818M29.3462 32.3765V24.2594C29.3462 23.9168 29.3462 23.7454 29.2957 23.5926C29.251 23.4575 29.178 23.3334 29.0816 23.2287C28.9725 23.1104 28.8227 23.0272 28.5232 22.8607L21.1232 18.7496C20.8396 18.5921 20.6978 18.5133 20.5476 18.4824C20.4147 18.4551 20.2777 18.4551 20.1447 18.4824C19.9946 18.5133 19.8528 18.5921 19.5692 18.7496L12.1692 22.8608C11.8696 23.0272 11.7199 23.1104 11.6108 23.2287C11.5143 23.3334 11.4413 23.4575 11.3967 23.5926C11.3462 23.7454 11.3462 23.9168 11.3462 24.2594V32.3765C11.3462 32.7192 11.3462 32.8905 11.3967 33.0433C11.4413 33.1784 11.5143 33.3025 11.6108 33.4072C11.7199 33.5256 11.8696 33.6088 12.1692 33.7752L19.5692 37.8863C19.8528 38.0438 19.9946 38.1226 20.1447 38.1535C20.2777 38.1808 20.4147 38.1808 20.5476 38.1535C20.6978 38.1226 20.8396 38.0438 21.1232 37.8863L28.5232 33.7752C28.8227 33.6088 28.9725 33.5256 29.0816 33.4072C29.178 33.3025 29.251 33.1784 29.2957 33.0433C29.3462 32.8905 29.3462 32.7192 29.3462 32.3765Z" stroke="#2361A9" stroke-width="2" stroke-linecap="round" stroke-linejoin="round"/>
</g>
<defs>
<clipPath id="clip0_3209_2389">
<rect width="40" height="40" fill="white" transform="translate(0.346191)"/>
</clipPath>
</defs>
</svg>
