<svg width="40" height="40" viewBox="0 0 40 40" fill="none" xmlns="http://www.w3.org/2000/svg">
<path d="M4.61255 16H36.6125M36.6125 16L32.6125 20M36.6125 16L32.6125 12M4.61255 6H31.6125M31.6125 6L27.6125 10M31.6125 6L27.6125 2" stroke="#2361A9" stroke-width="2" stroke-linecap="round" stroke-linejoin="round"/>
<path d="M27.6428 25.5282L19.9999 29.7743M19.9999 29.7743L12.357 25.5282M19.9999 29.7743L19.9999 38.3164M28.0924 33.4236V26.125C28.0924 25.8169 28.0924 25.6629 28.047 25.5255C28.0069 25.4039 27.9412 25.2924 27.8545 25.1982C27.7564 25.0918 27.6218 25.017 27.3524 24.8674L20.6986 21.1708C20.4436 21.0291 20.3161 20.9583 20.1811 20.9305C20.0616 20.906 19.9383 20.906 19.8188 20.9305C19.6838 20.9583 19.5563 21.0291 19.3013 21.1708L12.6475 24.8674C12.3781 25.017 12.2435 25.0918 12.1454 25.1982C12.0587 25.2924 11.993 25.4039 11.9529 25.5255C11.9075 25.6629 11.9075 25.8169 11.9075 26.125V33.4236C11.9075 33.7317 11.9075 33.8858 11.9529 34.0231C11.993 34.1447 12.0587 34.2563 12.1454 34.3504C12.2435 34.4568 12.3781 34.5316 12.6475 34.6812L19.3013 38.3778C19.5563 38.5195 19.6838 38.5903 19.8188 38.6181C19.9383 38.6426 20.0616 38.6426 20.1811 38.6181C20.3161 38.5903 20.4436 38.5195 20.6986 38.3778L27.3524 34.6812C27.6218 34.5316 27.7564 34.4568 27.8545 34.3504C27.9412 34.2563 28.0069 34.1447 28.047 34.0231C28.0924 33.8858 28.0924 33.7317 28.0924 33.4236Z" stroke="#2361A9" stroke-width="2" stroke-linecap="round" stroke-linejoin="round"/>
</svg>
