<svg width="41" height="40" viewBox="0 0 41 40" fill="none" xmlns="http://www.w3.org/2000/svg">
<g clip-path="url(#clip0_3209_2411)">
<path d="M18.8149 31.7799C18.7374 31.7816 18.6606 31.7651 18.5907 31.7315L1.32474 23.9953C1.23018 23.9523 1.14997 23.8831 1.09373 23.7958C1.03748 23.7085 1.00757 23.6068 1.00757 23.503C1.00757 23.3991 1.03748 23.2974 1.09373 23.2101C1.14997 23.1228 1.23018 23.0536 1.32474 23.0106L12.1617 17.7407C12.2893 17.6894 12.4316 17.6883 12.5601 17.7376C12.6885 17.7868 12.7936 17.8828 12.8542 18.0063C12.9148 18.1297 12.9265 18.2716 12.8869 18.4033C12.8474 18.535 12.7595 18.6469 12.6408 18.7166L2.82364 23.4766L18.8017 30.637L38.3665 21.0194L30.3357 17.4194C30.2708 17.3906 30.2122 17.3492 30.1632 17.2977C30.1143 17.2462 30.0759 17.1855 30.0504 17.1192C30.0249 17.0529 30.0127 16.9822 30.0145 16.9111C30.0164 16.8401 30.0321 16.7701 30.061 16.7052C30.0899 16.6402 30.1312 16.5816 30.1828 16.5326C30.2343 16.4837 30.2949 16.4454 30.3613 16.4199C30.4276 16.3943 30.4983 16.3822 30.5693 16.384C30.6404 16.3858 30.7104 16.4016 30.7753 16.4304L39.8654 20.5008C39.959 20.5441 40.0387 20.6128 40.0954 20.699C40.1521 20.7852 40.1836 20.8855 40.1863 20.9887C40.1884 21.0918 40.1609 21.1933 40.1072 21.2813C40.0534 21.3693 39.9756 21.4401 39.883 21.4854L19.0522 31.7271C18.9778 31.7617 18.8969 31.7797 18.8149 31.7799Z" fill="#2361A9" stroke="#2361A9" stroke-width="0.6"/>
<path d="M18.8149 37.6487C18.7376 37.6484 18.6613 37.632 18.5907 37.6004L15.7424 36.3257C15.6468 36.2825 15.5656 36.2127 15.5087 36.1246C15.4518 36.0365 15.4215 35.9338 15.4215 35.829V33.363L11.6369 31.6487V33.6268C11.6377 33.7177 11.6155 33.8073 11.5725 33.8874C11.5295 33.9675 11.4669 34.0354 11.3907 34.0849C11.3145 34.1344 11.227 34.1639 11.1363 34.1706C11.0457 34.1774 10.9548 34.1612 10.872 34.1235L8.12918 32.8971C8.03391 32.8535 7.95308 32.7836 7.89622 32.6956C7.83937 32.6076 7.80887 32.5051 7.8083 32.4004V29.952L4.75775 28.5718V30.5498C4.75741 30.6403 4.73454 30.7293 4.69121 30.8087C4.64788 30.8882 4.58546 30.9556 4.50957 31.0049C4.43368 31.0542 4.34671 31.0838 4.25651 31.091C4.16631 31.0983 4.07573 31.083 3.99292 31.0465L1.32039 29.8641C1.22511 29.8205 1.14429 29.7506 1.08743 29.6626C1.03058 29.5746 1.00007 29.4722 0.999512 29.3674V23.4993C0.999512 23.3547 1.05694 23.2161 1.15915 23.1139C1.26137 23.0116 1.40001 22.9542 1.54457 22.9542C1.68912 22.9542 1.82776 23.0116 1.92998 23.1139C2.0322 23.2161 2.08962 23.3547 2.08962 23.4993V29.0114L3.66764 29.7235V27.7454C3.67113 27.6575 3.69571 27.5716 3.73931 27.4951C3.78292 27.4186 3.84427 27.3537 3.91819 27.3059C3.99285 27.2533 4.07978 27.2208 4.17063 27.2116C4.26147 27.2023 4.35316 27.2167 4.43687 27.2531L8.57753 29.1081C8.67314 29.1512 8.75427 29.221 8.81119 29.3091C8.8681 29.3972 8.89839 29.4999 8.89841 29.6048V32.0883L10.5512 32.8268V30.8487C10.5469 30.7566 10.5663 30.6648 10.6075 30.5823C10.6487 30.4997 10.7104 30.4291 10.7866 30.3771C10.8628 30.3251 10.9511 30.2935 11.043 30.2853C11.1349 30.277 11.2273 30.2924 11.3116 30.33L16.1863 32.5279C16.2824 32.5708 16.3642 32.6404 16.4218 32.7285C16.4795 32.8165 16.5107 32.9193 16.5116 33.0246V35.4949L18.8017 36.4839L20.7621 35.5213V33.1169C20.7628 33.0155 20.7914 32.9162 20.8449 32.8301C20.8985 32.744 20.9748 32.6744 21.0654 32.629L27.9446 29.2311C28.0272 29.1908 28.1187 29.1722 28.2105 29.177C28.3023 29.1819 28.3913 29.21 28.4692 29.2589C28.5471 29.3077 28.6112 29.3756 28.6555 29.4561C28.6999 29.5366 28.723 29.6271 28.7226 29.7191V31.6487L30.3753 30.8355V28.3432C30.3759 28.2418 30.4046 28.1426 30.4581 28.0565C30.5117 27.9704 30.588 27.9007 30.6786 27.8553L36.9556 24.7784C37.0383 24.737 37.1303 24.7176 37.2227 24.7219C37.3151 24.7263 37.4049 24.7543 37.4834 24.8032C37.5619 24.8522 37.6266 24.9205 37.6711 25.0015C37.7157 25.0826 37.7387 25.1738 37.738 25.2663V27.2092L39.0962 26.5454V20.9982C39.0962 20.8536 39.1536 20.715 39.2559 20.6128C39.3581 20.5106 39.4967 20.4531 39.6413 20.4531C39.7858 20.4531 39.9245 20.5106 40.0267 20.6128C40.1289 20.715 40.1863 20.8536 40.1863 20.9982V26.8663C40.1857 26.9677 40.1571 27.067 40.1035 27.1531C40.05 27.2392 39.9737 27.3088 39.883 27.3542L37.4391 28.5718C37.3563 28.6133 37.2643 28.6327 37.1719 28.6281C37.0794 28.6234 36.9898 28.595 36.9116 28.5454C36.8335 28.4964 36.7692 28.4283 36.7246 28.3475C36.68 28.2668 36.6566 28.1761 36.6567 28.0839V26.1235L31.4654 28.6817V31.152C31.4665 31.2549 31.4386 31.356 31.385 31.4438C31.3313 31.5316 31.2541 31.6026 31.1622 31.6487L28.4237 32.9982C28.3403 33.0373 28.2486 33.0553 28.1567 33.0507C28.0647 33.0461 27.9753 33.019 27.8962 32.9718C27.8181 32.9217 27.7538 32.8528 27.7092 32.7714C27.6647 32.69 27.6413 32.5987 27.6413 32.5059V30.5938L21.8523 33.4553V35.8773C21.8527 35.9789 21.8244 36.0786 21.7708 36.1649C21.7171 36.2512 21.6403 36.3206 21.549 36.3652L19.0523 37.5916C18.9789 37.6296 18.8975 37.6492 18.8149 37.6487Z" fill="#2361A9" stroke="#2361A9" stroke-width="0.6"/>
<path d="M18.8104 37.5563C18.6659 37.5563 18.5272 37.4989 18.425 37.3967C18.3228 37.2945 18.2654 37.1558 18.2654 37.0113V31.297C18.2654 31.1524 18.3228 31.0138 18.425 30.9116C18.5272 30.8094 18.6659 30.752 18.8104 30.752C18.955 30.752 19.0936 30.8094 19.1958 30.9116C19.2981 31.0138 19.3555 31.1524 19.3555 31.297V37.0113C19.3561 37.083 19.3424 37.1542 19.3152 37.2206C19.288 37.287 19.2479 37.3473 19.1972 37.398C19.1464 37.4487 19.0861 37.4889 19.0197 37.5161C18.9533 37.5432 18.8822 37.5569 18.8104 37.5563Z" fill="#2361A9" stroke="#2361A9" stroke-width="0.6"/>
<path d="M5.49601 25.7795C5.37325 25.7793 5.25418 25.7376 5.15807 25.6612C5.06197 25.5848 4.99447 25.4782 4.96649 25.3587C4.93852 25.2392 4.95171 25.1137 5.00394 25.0026C5.05616 24.8915 5.14436 24.8013 5.25425 24.7466L15.8105 19.4041C15.9399 19.3401 16.0894 19.3301 16.2262 19.3763C16.363 19.4224 16.4759 19.5209 16.5401 19.6502C16.5727 19.7161 16.5917 19.7879 16.596 19.8613C16.6003 19.9347 16.5899 20.0082 16.5653 20.0774C16.5407 20.1467 16.5025 20.2103 16.4528 20.2645C16.4032 20.3188 16.3432 20.3625 16.2764 20.3931L5.72019 25.7356C5.64961 25.7666 5.57306 25.7816 5.49601 25.7795Z" fill="#2361A9" stroke="#2361A9" stroke-width="0.6"/>
<path d="M9.27018 27.5058C9.14742 27.5055 9.02835 27.4638 8.93224 27.3875C8.83614 27.3111 8.76864 27.2045 8.74066 27.085C8.71269 26.9654 8.72588 26.84 8.77811 26.7289C8.83033 26.6178 8.91853 26.5276 9.02842 26.4728L20.1158 20.9226C20.2452 20.8587 20.3948 20.8487 20.5316 20.8948C20.6684 20.941 20.7813 21.0395 20.8455 21.1688C20.878 21.2347 20.897 21.3065 20.9014 21.3798C20.9057 21.4532 20.8952 21.5267 20.8707 21.596C20.8461 21.6652 20.8078 21.7289 20.7582 21.7831C20.7086 21.8373 20.6486 21.881 20.5818 21.9117L9.49436 27.4618C9.42378 27.4928 9.34723 27.5078 9.27018 27.5058Z" fill="#2361A9" stroke="#2361A9" stroke-width="0.6"/>
<path d="M14.1073 29.5953C14.0056 29.5962 13.9057 29.5682 13.8193 29.5145C13.7329 29.4608 13.6636 29.3836 13.6194 29.292C13.5582 29.1635 13.5497 29.0161 13.5956 28.8814C13.6416 28.7467 13.7385 28.6353 13.8656 28.5711L34.5249 18.4217C34.5896 18.3837 34.6614 18.3595 34.7358 18.3506C34.8103 18.3416 34.8858 18.3482 34.9576 18.3697C35.0294 18.3913 35.096 18.4275 35.1532 18.4759C35.2104 18.5244 35.257 18.5842 35.29 18.6515C35.3231 18.7188 35.3419 18.7922 35.3453 18.8671C35.3487 18.9421 35.3366 19.0169 35.3097 19.0869C35.2829 19.1569 35.2419 19.2206 35.1893 19.2741C35.1367 19.3275 35.0736 19.3695 35.004 19.3975L14.3447 29.5469C14.2706 29.5819 14.1892 29.5985 14.1073 29.5953Z" fill="#2361A9" stroke="#2361A9" stroke-width="0.6"/>
<path d="M30.4451 6.49733L20.2653 11.3833M20.2653 11.3833L10.0856 6.49733M20.2653 11.3833L20.2654 21.2127M31.0439 15.5826V7.18404C31.0439 6.82951 31.0439 6.65225 30.9835 6.49416C30.93 6.35429 30.8426 6.22591 30.727 6.11759C30.5964 5.99515 30.4171 5.90906 30.0583 5.73689L21.196 1.48325C20.8563 1.32023 20.6865 1.23872 20.5066 1.20676C20.3475 1.17848 20.1833 1.17848 20.0241 1.20676C19.8443 1.23872 19.6744 1.32023 19.3348 1.48325L10.4724 5.73689C10.1137 5.90907 9.93435 5.99515 9.80375 6.11759C9.6882 6.22591 9.60077 6.35429 9.54728 6.49416C9.48682 6.65225 9.48682 6.82951 9.48682 7.18404V15.5826C9.48682 15.9371 9.48682 16.1144 9.54728 16.2724C9.60077 16.4123 9.68821 16.5407 9.80375 16.649C9.93435 16.7715 10.1137 16.8575 10.4724 17.0297L19.3348 21.2834C19.6744 21.4464 19.8443 21.5279 20.0241 21.5598C20.1833 21.5881 20.3475 21.5881 20.5066 21.5598C20.6865 21.5279 20.8563 21.4464 21.196 21.2834L30.0583 17.0297C30.4171 16.8575 30.5964 16.7715 30.727 16.649C30.8426 16.5407 30.93 16.4123 30.9835 16.2724C31.0439 16.1144 31.0439 15.9371 31.0439 15.5826Z" stroke="#2361A9" stroke-width="2" stroke-linecap="round" stroke-linejoin="round"/>
</g>
<defs>
<clipPath id="clip0_3209_2411">
<rect width="40" height="40" fill="white" transform="translate(0.59082)"/>
</clipPath>
</defs>
</svg>
