<svg width="41" height="40" viewBox="0 0 41 40" fill="none" xmlns="http://www.w3.org/2000/svg">
<path d="M27.0128 26.6667V10.3333C27.0128 8.46649 27.0128 7.53307 26.6495 6.82003C26.3299 6.19282 25.82 5.68289 25.1927 5.36331C24.4797 5 23.5463 5 21.6794 5H9.01278C7.14593 5 6.21251 5 5.49947 5.36331C4.87227 5.68289 4.36233 6.19282 4.04275 6.82003C3.67944 7.53307 3.67944 8.46649 3.67944 10.3333V21.3333C3.67944 23.2002 3.67944 24.1336 4.04275 24.8466C4.36233 25.4738 4.87227 25.9838 5.49947 26.3034C6.21251 26.6667 7.14593 26.6667 9.01278 26.6667H27.0128ZM27.0128 26.6667H34.3461C35.2795 26.6667 35.7462 26.6667 36.1028 26.485C36.4164 26.3252 36.6713 26.0703 36.8311 25.7567C37.0128 25.4001 37.0128 24.9334 37.0128 24V19.4379C37.0128 19.0303 37.0128 18.8264 36.9667 18.6346C36.9259 18.4646 36.8586 18.302 36.7672 18.1529C36.6641 17.9847 36.52 17.8405 36.2317 17.5523L32.7938 14.1144C32.5056 13.8261 32.3614 13.682 32.1932 13.5789C32.0441 13.4876 31.8816 13.4202 31.7115 13.3794C31.5197 13.3333 31.3159 13.3333 30.9082 13.3333H27.0128M15.3461 30.8333C15.3461 33.1345 13.4806 35 11.1794 35C8.87826 35 7.01278 33.1345 7.01278 30.8333C7.01278 28.5321 8.87826 26.6667 11.1794 26.6667C13.4806 26.6667 15.3461 28.5321 15.3461 30.8333ZM33.6794 30.8333C33.6794 33.1345 31.814 35 29.5128 35C27.2116 35 25.3461 33.1345 25.3461 30.8333C25.3461 28.5321 27.2116 26.6667 29.5128 26.6667C31.814 26.6667 33.6794 28.5321 33.6794 30.8333Z" stroke="#2361A9" stroke-width="2" stroke-linecap="round" stroke-linejoin="round"/>
</svg>
