<svg width="41" height="41" viewBox="0 0 41 41" fill="none" xmlns="http://www.w3.org/2000/svg">
<g clip-path="url(#clip0_3209_2251)">
<path d="M18.5703 31.8502C18.4929 31.8519 18.416 31.8354 18.3462 31.8018L1.08024 24.0656C0.985669 24.0226 0.905467 23.9534 0.84922 23.8661C0.792973 23.7788 0.763062 23.6771 0.763062 23.5733C0.763062 23.4694 0.792973 23.3678 0.84922 23.2805C0.905467 23.1931 0.985669 23.1239 1.08024 23.081L10.6627 18.3645C10.7903 18.3132 10.9326 18.3121 11.061 18.3613C11.1895 18.4105 11.2945 18.5065 11.3552 18.63C11.4158 18.7535 11.4275 18.8953 11.3879 19.027C11.3483 19.1588 11.2604 19.2707 11.1418 19.3403L2.57914 23.5469L18.5572 30.7073L38.122 21.0898L30.0912 17.4898C30.0263 17.4609 29.9677 17.4195 29.9187 17.368C29.8698 17.3165 29.8314 17.2558 29.8059 17.1895C29.7804 17.1232 29.7682 17.0525 29.77 16.9814C29.7719 16.9104 29.7876 16.8404 29.8165 16.7755C29.8454 16.7105 29.8867 16.6519 29.9383 16.603C29.9898 16.554 30.0504 16.5157 30.1167 16.4902C30.1831 16.4647 30.2538 16.4525 30.3248 16.4543C30.3959 16.4561 30.4658 16.4719 30.5308 16.5007L39.6209 20.5711C39.7145 20.6144 39.7942 20.6831 39.8509 20.7693C39.9076 20.8555 39.9391 20.9558 39.9418 21.059C39.9439 21.1621 39.9164 21.2636 39.8627 21.3516C39.8089 21.4396 39.7311 21.5104 39.6385 21.5557L18.8077 31.7974C18.7333 31.832 18.6524 31.85 18.5703 31.8502Z" fill="#2361A9" stroke="#2361A9" stroke-width="0.5"/>
<path d="M18.5704 37.719C18.4931 37.7187 18.4167 37.7023 18.3462 37.6707L15.4979 36.396C15.4023 36.3528 15.3211 36.283 15.2642 36.1949C15.2073 36.1068 15.177 36.0042 15.177 35.8993V33.4333L11.3924 31.719V33.6971C11.3932 33.788 11.371 33.8776 11.328 33.9577C11.285 34.0378 11.2224 34.1057 11.1462 34.1552C11.07 34.2047 10.9825 34.2342 10.8918 34.241C10.8011 34.2477 10.7103 34.2315 10.6275 34.1938L7.88468 32.9674C7.7894 32.9238 7.70857 32.8539 7.65172 32.7659C7.59486 32.6779 7.56436 32.5755 7.5638 32.4707V30.0223L4.51325 28.6421V30.6201C4.5129 30.7106 4.49003 30.7996 4.44671 30.8791C4.40338 30.9585 4.34095 31.0259 4.26506 31.0752C4.18917 31.1245 4.1022 31.1541 4.012 31.1614C3.92181 31.1686 3.83122 31.1533 3.74841 31.1168L1.07588 29.9344C0.980608 29.8908 0.899779 29.8209 0.842926 29.7329C0.786074 29.6449 0.755568 29.5425 0.755005 29.4377V23.5696C0.755005 23.425 0.81243 23.2864 0.914648 23.1842C1.01687 23.082 1.1555 23.0245 1.30006 23.0245C1.44462 23.0245 1.58325 23.082 1.68547 23.1842C1.78769 23.2864 1.84511 23.425 1.84511 23.5696V29.0817L3.42314 29.7938V27.8157C3.42662 27.7278 3.4512 27.6419 3.49481 27.5654C3.53841 27.4889 3.59976 27.424 3.67369 27.3762C3.74834 27.3236 3.83528 27.2911 3.92612 27.2819C4.01696 27.2727 4.10866 27.287 4.19237 27.3234L8.33303 29.1784C8.42863 29.2215 8.50976 29.2913 8.56668 29.3794C8.6236 29.4675 8.65388 29.5702 8.65391 29.6751V32.1586L10.3067 32.8971V30.919C10.3024 30.8269 10.3218 30.7351 10.363 30.6526C10.4042 30.57 10.4659 30.4994 10.5421 30.4474C10.6183 30.3954 10.7066 30.3638 10.7985 30.3556C10.8904 30.3473 10.9828 30.3628 11.0671 30.4004L15.9418 32.5982C16.0379 32.6411 16.1197 32.7107 16.1773 32.7988C16.235 32.8869 16.2661 32.9896 16.2671 33.0949V35.5652L18.5572 36.5542L20.5176 35.5916V33.1872C20.5183 33.0858 20.5469 32.9865 20.6004 32.9004C20.654 32.8143 20.7303 32.7447 20.8209 32.6993L27.7001 29.3015C27.7826 29.2611 27.8742 29.2425 27.966 29.2473C28.0578 29.2522 28.1468 29.2803 28.2247 29.3292C28.3025 29.378 28.3667 29.4459 28.411 29.5264C28.4554 29.607 28.4784 29.6975 28.4781 29.7894V31.719L30.1308 30.9059V28.4135C30.1314 28.3122 30.1601 28.2129 30.2136 28.1268C30.2672 28.0407 30.3435 27.9711 30.4341 27.9256L36.7111 24.8487C36.7938 24.8073 36.8858 24.7879 36.9782 24.7922C37.0706 24.7966 37.1604 24.8246 37.2389 24.8735C37.3174 24.9225 37.382 24.9908 37.4266 25.0719C37.4712 25.1529 37.4942 25.2441 37.4935 25.3366V27.2795L38.8517 26.6157V21.0685C38.8517 20.9239 38.9091 20.7853 39.0114 20.6831C39.1136 20.5809 39.2522 20.5234 39.3968 20.5234C39.5413 20.5234 39.68 20.5809 39.7822 20.6831C39.8844 20.7853 39.9418 20.9239 39.9418 21.0685V26.9366C39.9412 27.038 39.9125 27.1373 39.859 27.2234C39.8055 27.3095 39.7292 27.3791 39.6385 27.4245L37.1946 28.6421C37.1118 28.6836 37.0198 28.703 36.9274 28.6984C36.8349 28.6937 36.7453 28.6653 36.6671 28.6157C36.589 28.5667 36.5247 28.4986 36.4801 28.4179C36.4355 28.3371 36.4121 28.2464 36.4121 28.1542V26.1938L31.2209 28.752V31.2223C31.222 31.3252 31.1941 31.4263 31.1405 31.5141C31.0868 31.602 31.0096 31.673 30.9176 31.719L28.1792 33.0685C28.0958 33.1076 28.0041 33.1256 27.9122 33.121C27.8202 33.1164 27.7308 33.0893 27.6517 33.0421C27.5736 32.992 27.5093 32.9231 27.4647 32.8417C27.4202 32.7603 27.3968 32.669 27.3968 32.5762V30.6641L21.6078 33.5256V35.9476C21.6082 36.0492 21.5799 36.1489 21.5263 36.2352C21.4726 36.3215 21.3958 36.3909 21.3045 36.4355L18.8078 37.6619C18.7344 37.6999 18.653 37.7195 18.5704 37.719Z" fill="#2361A9" stroke="#2361A9" stroke-width="0.5"/>
<path d="M18.5659 37.6267C18.4214 37.6267 18.2827 37.5692 18.1805 37.467C18.0783 37.3648 18.0209 37.2262 18.0209 37.0816V31.3673C18.0209 31.2228 18.0783 31.0841 18.1805 30.9819C18.2827 30.8797 18.4214 30.8223 18.5659 30.8223C18.7105 30.8223 18.8491 30.8797 18.9513 30.9819C19.0536 31.0841 19.111 31.2228 19.111 31.3673V37.0816C19.1116 37.1533 19.0979 37.2245 19.0707 37.2909C19.0435 37.3573 19.0034 37.4176 18.9526 37.4683C18.9019 37.5191 18.8416 37.5592 18.7752 37.5864C18.7088 37.6135 18.6377 37.6272 18.5659 37.6267Z" fill="#2361A9" stroke="#2361A9" stroke-width="0.5"/>
<path d="M5.25163 25.8503C5.12887 25.8501 5.00979 25.8084 4.91369 25.732C4.81759 25.6556 4.75008 25.549 4.72211 25.4295C4.69413 25.31 4.70732 25.1845 4.75955 25.0734C4.81178 24.9623 4.89998 24.8721 5.00987 24.8174L14.8253 19.9822C14.9547 19.9182 15.1042 19.9082 15.241 19.9544C15.3778 20.0005 15.4907 20.0991 15.5549 20.2284C15.5875 20.2943 15.6065 20.366 15.6108 20.4394C15.6151 20.5128 15.6047 20.5863 15.5801 20.6555C15.5555 20.7248 15.5173 20.7884 15.4676 20.8427C15.418 20.8969 15.358 20.9406 15.2912 20.9712L5.4758 25.8064C5.40523 25.8374 5.32868 25.8524 5.25163 25.8503Z" fill="#2361A9" stroke="#2361A9" stroke-width="0.5"/>
<path d="M9.44943 27.6744C9.32602 27.6764 9.20562 27.6362 9.10824 27.5604C9.01087 27.4845 8.94236 27.3776 8.91412 27.2575C8.88588 27.1373 8.8996 27.0111 8.953 26.8999C9.0064 26.7886 9.09627 26.6989 9.20767 26.6458L20.1264 21.2876C20.1908 21.252 20.2618 21.2299 20.335 21.2225C20.4082 21.2151 20.4822 21.2226 20.5525 21.2446C20.6227 21.2666 20.6878 21.3026 20.7437 21.3504C20.7997 21.3982 20.8454 21.4568 20.8781 21.5228C20.9108 21.5887 20.9297 21.6606 20.9339 21.7341C20.938 21.8076 20.9272 21.8812 20.9022 21.9504C20.8771 22.0196 20.8383 22.083 20.788 22.1368C20.7378 22.1906 20.6772 22.2336 20.6099 22.2634L9.69119 27.6216C9.61512 27.6558 9.5328 27.6737 9.44943 27.6744Z" fill="#2361A9" stroke="#2361A9" stroke-width="0.5"/>
<path d="M13.8627 29.6656C13.761 29.6665 13.6611 29.6385 13.5747 29.5848C13.4883 29.5311 13.419 29.4539 13.3748 29.3623C13.3135 29.2338 13.305 29.0864 13.351 28.9517C13.397 28.817 13.4939 28.7056 13.6209 28.6414L34.2803 18.492C34.3449 18.454 34.4168 18.4298 34.4912 18.4209C34.5657 18.4119 34.6412 18.4185 34.713 18.44C34.7848 18.4616 34.8514 18.4978 34.9086 18.5463C34.9658 18.5947 35.0124 18.6545 35.0454 18.7218C35.0785 18.7891 35.0973 18.8625 35.1007 18.9375C35.104 19.0124 35.0919 19.0872 35.0651 19.1572C35.0382 19.2272 34.9972 19.2909 34.9446 19.3444C34.892 19.3978 34.829 19.4398 34.7594 19.4678L14.1001 29.6172C14.026 29.6522 13.9445 29.6688 13.8627 29.6656Z" fill="#2361A9" stroke="#2361A9" stroke-width="0.5"/>
<path d="M12.6666 11.6667C12.6666 11.6667 12.7677 12.3744 15.6967 15.3033C18.6256 18.2322 23.3743 18.2322 26.3033 15.3033C27.341 14.2656 28.011 12.9994 28.3134 11.6667M12.6666 11.6667V16.6667M12.6666 11.6667H17.6666M29.3333 8.33333C29.3333 8.33333 29.2322 7.62563 26.3033 4.6967C23.3743 1.76777 18.6256 1.76777 15.6967 4.6967C14.6589 5.73443 13.9889 7.0006 13.6865 8.33333M29.3333 8.33333V3.33333M29.3333 8.33333H24.3333" stroke="#2361A9" stroke-width="2" stroke-linecap="round" stroke-linejoin="round"/>
</g>
<defs>
<clipPath id="clip0_3209_2251">
<rect width="40" height="40" fill="white" transform="translate(0.346191 0.0703125)"/>
</clipPath>
</defs>
</svg>
