<svg width="39" height="39" viewBox="0 0 39 39" fill="none" xmlns="http://www.w3.org/2000/svg">
<path d="M19.0156 22.8232L10.5156 27.5455M10.5156 27.5455L2.01559 22.8232M10.5156 27.5455L10.5156 37.0455M19.5156 31.604V23.4869C19.5156 23.1443 19.5156 22.973 19.4651 22.8202C19.4205 22.685 19.3475 22.5609 19.251 22.4562C19.1419 22.3379 18.9922 22.2547 18.6927 22.0883L11.2927 17.9772C11.0091 17.8196 10.8672 17.7408 10.7171 17.71C10.5842 17.6826 10.4471 17.6826 10.3142 17.71C10.164 17.7408 10.0222 17.8196 9.7386 17.9772L2.3386 22.0883C2.03907 22.2547 1.88931 22.3379 1.78026 22.4562C1.68378 22.5609 1.61077 22.685 1.56611 22.8202C1.51562 22.973 1.51562 23.1443 1.51562 23.4869V31.604C1.51562 31.9467 1.51562 32.118 1.56611 32.2708C1.61077 32.406 1.68378 32.5301 1.78026 32.6348C1.88931 32.7531 2.03907 32.8363 2.3386 33.0027L9.7386 37.1138C10.0222 37.2714 10.164 37.3501 10.3142 37.381C10.4471 37.4084 10.5842 37.4084 10.7171 37.381C10.8672 37.3501 11.0091 37.2714 11.2927 37.1138L18.6927 33.0027C18.9922 32.8363 19.1419 32.7531 19.251 32.6348C19.3475 32.5301 19.4205 32.406 19.4651 32.2708C19.5156 32.118 19.5156 31.9467 19.5156 31.604Z" stroke="#2361A9" stroke-width="2" stroke-linecap="round" stroke-linejoin="round"/>
<path d="M14.1989 14.1663C14.1608 13.7826 14.1413 13.3934 14.1413 12.9997C14.1413 6.55635 19.3646 1.33301 25.8079 1.33301C32.2513 1.33301 37.4746 6.55635 37.4746 12.9997C37.4746 19.443 32.2513 24.6663 25.8079 24.6663C25.6123 24.6663 25.4179 24.6615 25.2246 24.652C25.0289 24.6424 24.8344 24.6279 24.6413 24.6087" stroke="#2361A9" stroke-width="2" stroke-linecap="round" stroke-linejoin="round"/>
<path d="M21.0901 15.9952C21.0901 17.6082 22.4982 18.9157 24.2353 18.9157H27.3804C29.1174 18.9157 30.5256 17.6082 30.5256 15.9952C30.5256 14.3823 29.1174 13.0747 27.3804 13.0747H24.2353C22.4982 13.0747 21.0901 11.7672 21.0901 10.1542C21.0901 8.54125 22.4982 7.23369 24.2353 7.23369H27.3804C29.1174 7.23369 30.5256 8.54125 30.5256 10.1542M25.8078 5.77344V20.376" stroke="#2361A9" stroke-width="2" stroke-linecap="round" stroke-linejoin="round"/>
</svg>
