<svg width="38" height="38" viewBox="0 0 38 38" fill="none" xmlns="http://www.w3.org/2000/svg">
<path d="M19.1768 21.9658L10.5135 26.7788M10.5135 26.7788L1.85015 21.9658M10.5135 26.7788L10.5135 36.4613M19.6864 30.9153V22.6423C19.6864 22.293 19.6864 22.1184 19.6349 21.9627C19.5894 21.8249 19.515 21.6985 19.4167 21.5918C19.3055 21.4711 19.1529 21.3863 18.8476 21.2167L11.3054 17.0267C11.0164 16.8661 10.8719 16.7858 10.7188 16.7543C10.5833 16.7264 10.4436 16.7264 10.3082 16.7543C10.1551 16.7858 10.0106 16.8661 9.72153 17.0267L2.17936 21.2167C1.87408 21.3863 1.72144 21.4711 1.61029 21.5918C1.51196 21.6985 1.43755 21.8249 1.39203 21.9627C1.34058 22.1184 1.34058 22.293 1.34058 22.6423V30.9153C1.34058 31.2646 1.34058 31.4392 1.39203 31.5949C1.43755 31.7327 1.51196 31.8591 1.61029 31.9658C1.72144 32.0865 1.87408 32.1713 2.17936 32.3409L9.72153 36.5309C10.0106 36.6915 10.1551 36.7718 10.3082 36.8033C10.4436 36.8312 10.5833 36.8312 10.7188 36.8033C10.8719 36.7718 11.0164 36.6915 11.3054 36.5309L18.8476 32.3409C19.1529 32.1713 19.3055 32.0865 19.4167 31.9658C19.515 31.8591 19.5894 31.7327 19.6349 31.5949C19.6864 31.4392 19.6864 31.2646 19.6864 30.9153Z" stroke="#2361A9" stroke-width="2" stroke-linecap="round" stroke-linejoin="round"/>
<path fill-rule="evenodd" clip-rule="evenodd" d="M36.0732 27.2409H36.9337C37.2679 27.2409 37.5379 27.5117 37.5379 27.845C37.5379 28.1784 37.2679 28.4492 36.9337 28.4492H22.8109V18.5507L22.7814 18.5379V16.3657H19.1563V16.9728L17.948 16.4511V14.5532C17.948 10.3166 20.8588 6.73584 24.8296 5.75701C24.3125 5.21449 23.9897 4.48464 23.9897 3.6781C23.9897 2.01249 25.345 0.657227 27.0106 0.657227C28.6762 0.657227 30.0315 2.01249 30.0315 3.6781C30.0315 4.48464 29.7087 5.21449 29.1916 5.75701C33.1624 6.73584 36.0732 10.3166 36.0732 14.5532V27.2409ZM23.9897 16.3657V22.4075H30.0315V16.3657H23.9897ZM30.0315 27.2409V23.6158H23.9897V27.2409H30.0315ZM30.0315 13.3449C30.0315 10.919 28.9102 8.63716 27.0106 7.15888C25.1116 8.63716 23.9897 10.919 23.9897 13.3449V15.1574H30.0315V13.3449ZM34.8649 16.3657H31.2398V22.4075H34.8649V16.3657ZM34.8649 15.1574V14.5532C34.8649 10.7258 32.1231 7.51702 28.4588 6.83555C30.2138 8.52594 31.2398 10.8653 31.2398 13.3449V15.1574H34.8649ZM28.8231 3.6781C28.8231 2.67891 28.0098 1.86557 27.0106 1.86557C26.0114 1.86557 25.1981 2.67891 25.1981 3.6781C25.1981 4.67728 26.0114 5.49062 27.0106 5.49062C28.0098 5.49062 28.8231 4.67728 28.8231 3.6781ZM22.7814 13.3449C22.7814 10.8653 23.808 8.52594 25.5624 6.83555C21.8981 7.51702 19.1563 10.7264 19.1563 14.5532V15.1574H22.7814V13.3449ZM31.2398 23.6158V27.2409H34.8649V23.6158H31.2398Z" fill="#2361A9"/>
<path d="M36.0732 27.2409H35.7232V27.5909H36.0732V27.2409ZM22.8109 28.4492H22.4609V28.7992H22.8109V28.4492ZM22.8109 18.5507H23.1609V18.3206L22.9496 18.2293L22.8109 18.5507ZM22.7814 18.5379H22.4314V18.768L22.6427 18.8593L22.7814 18.5379ZM22.7814 16.3657H23.1314V16.0157H22.7814V16.3657ZM19.1563 16.3657V16.0157H18.8063V16.3657H19.1563ZM19.1563 16.9728L19.0176 17.2941L19.5063 17.5052V16.9728H19.1563ZM17.948 16.4511H17.598V16.6812L17.8093 16.7724L17.948 16.4511ZM24.8296 5.75701L24.9134 6.09684L25.4994 5.95238L25.083 5.51552L24.8296 5.75701ZM29.1916 5.75701L28.9382 5.51552L28.5218 5.95238L29.1078 6.09684L29.1916 5.75701ZM23.9897 22.4075H23.6397V22.7575H23.9897V22.4075ZM23.9897 16.3657V16.0157H23.6397V16.3657H23.9897ZM30.0315 22.4075V22.7575H30.3815V22.4075H30.0315ZM30.0315 16.3657H30.3815V16.0157H30.0315V16.3657ZM30.0315 23.6158H30.3815V23.2658H30.0315V23.6158ZM30.0315 27.2409V27.5909H30.3815V27.2409H30.0315ZM23.9897 23.6158V23.2658H23.6397V23.6158H23.9897ZM23.9897 27.2409H23.6397V27.5909H23.9897V27.2409ZM27.0106 7.15888L27.2256 6.88267L27.0106 6.71536L26.7956 6.8827L27.0106 7.15888ZM23.9897 15.1574H23.6397V15.5074H23.9897V15.1574ZM30.0315 15.1574V15.5074H30.3815V15.1574H30.0315ZM31.2398 16.3657V16.0157H30.8898V16.3657H31.2398ZM34.8649 16.3657H35.2149V16.0157H34.8649V16.3657ZM31.2398 22.4075H30.8898V22.7575H31.2398V22.4075ZM34.8649 22.4075V22.7575H35.2149V22.4075H34.8649ZM34.8649 15.1574V15.5074H35.2149V15.1574H34.8649ZM28.4588 6.83555L28.5228 6.49145L27.3755 6.27808L28.216 7.08764L28.4588 6.83555ZM31.2398 15.1574H30.8898V15.5074H31.2398V15.1574ZM25.5624 6.83555L25.8053 7.0876L26.6454 6.27815L25.4984 6.49145L25.5624 6.83555ZM19.1563 15.1574H18.8063V15.5074H19.1563V15.1574ZM22.7814 15.1574V15.5074H23.1314V15.1574H22.7814ZM31.2398 27.2409H30.8898V27.5909H31.2398V27.2409ZM31.2398 23.6158V23.2658H30.8898V23.6158H31.2398ZM34.8649 27.2409V27.5909H35.2149V27.2409H34.8649ZM34.8649 23.6158H35.2149V23.2658H34.8649V23.6158ZM36.9337 26.8909H36.0732V27.5909H36.9337V26.8909ZM37.8879 27.845C37.8879 27.3187 37.4616 26.8909 36.9337 26.8909V27.5909C37.0743 27.5909 37.1879 27.7047 37.1879 27.845H37.8879ZM36.9337 28.7992C37.4616 28.7992 37.8879 28.3714 37.8879 27.845H37.1879C37.1879 27.9854 37.0743 28.0992 36.9337 28.0992V28.7992ZM22.8109 28.7992H36.9337V28.0992H22.8109V28.7992ZM22.4609 18.5507V28.4492H23.1609V18.5507H22.4609ZM22.6427 18.8593L22.6722 18.872L22.9496 18.2293L22.9201 18.2166L22.6427 18.8593ZM22.4314 16.3657V18.5379H23.1314V16.3657H22.4314ZM19.1563 16.7157H22.7814V16.0157H19.1563V16.7157ZM19.5063 16.9728V16.3657H18.8063V16.9728H19.5063ZM17.8093 16.7724L19.0176 17.2941L19.2951 16.6515L18.0867 16.1298L17.8093 16.7724ZM17.598 14.5532V16.4511H18.298V14.5532H17.598ZM24.7458 5.41718C20.6215 6.43387 17.598 10.1528 17.598 14.5532H18.298C18.298 10.4805 21.0962 7.03781 24.9134 6.09684L24.7458 5.41718ZM23.6397 3.6781C23.6397 4.58038 24.0012 5.39522 24.5763 5.9985L25.083 5.51552C24.6237 5.03376 24.3397 4.38891 24.3397 3.6781H23.6397ZM27.0106 0.307227C25.1517 0.307227 23.6397 1.81919 23.6397 3.6781H24.3397C24.3397 2.20579 25.5383 1.00723 27.0106 1.00723V0.307227ZM30.3815 3.6781C30.3815 1.81919 28.8695 0.307227 27.0106 0.307227V1.00723C28.4829 1.00723 29.6815 2.20579 29.6815 3.6781H30.3815ZM29.4449 5.9985C30.02 5.39522 30.3815 4.58038 30.3815 3.6781H29.6815C29.6815 4.38891 29.3975 5.03376 28.9382 5.51552L29.4449 5.9985ZM36.4232 14.5532C36.4232 10.1528 33.3997 6.43387 29.2754 5.41718L29.1078 6.09684C32.925 7.03781 35.7232 10.4805 35.7232 14.5532H36.4232ZM36.4232 27.2409V14.5532H35.7232V27.2409H36.4232ZM24.3397 22.4075V16.3657H23.6397V22.4075H24.3397ZM30.0315 22.0575H23.9897V22.7575H30.0315V22.0575ZM29.6815 16.3657V22.4075H30.3815V16.3657H29.6815ZM23.9897 16.7157H30.0315V16.0157H23.9897V16.7157ZM29.6815 23.6158V27.2409H30.3815V23.6158H29.6815ZM23.9897 23.9658H30.0315V23.2658H23.9897V23.9658ZM24.3397 27.2409V23.6158H23.6397V27.2409H24.3397ZM30.0315 26.8909H23.9897V27.5909H30.0315V26.8909ZM26.7956 7.43509C28.6101 8.84713 29.6815 11.0271 29.6815 13.3449H30.3815C30.3815 10.811 29.2102 8.42719 27.2256 6.88267L26.7956 7.43509ZM24.3397 13.3449C24.3397 11.0272 25.4117 8.84713 27.2256 7.43506L26.7956 6.8827C24.8116 8.42718 23.6397 10.8109 23.6397 13.3449H24.3397ZM24.3397 15.1574V13.3449H23.6397V15.1574H24.3397ZM30.0315 14.8074H23.9897V15.5074H30.0315V14.8074ZM29.6815 13.3449V15.1574H30.3815V13.3449H29.6815ZM31.2398 16.7157H34.8649V16.0157H31.2398V16.7157ZM31.5898 22.4075V16.3657H30.8898V22.4075H31.5898ZM34.8649 22.0575H31.2398V22.7575H34.8649V22.0575ZM34.5149 16.3657V22.4075H35.2149V16.3657H34.5149ZM34.5149 14.5532V15.1574H35.2149V14.5532H34.5149ZM28.3948 7.17965C31.8954 7.83068 34.5149 10.8966 34.5149 14.5532H35.2149C35.2149 10.555 32.3507 7.20335 28.5228 6.49145L28.3948 7.17965ZM31.5898 13.3449C31.5898 10.7681 30.5235 8.33834 28.7016 6.58347L28.216 7.08764C29.904 8.71354 30.8898 10.9626 30.8898 13.3449H31.5898ZM31.5898 15.1574V13.3449H30.8898V15.1574H31.5898ZM34.8649 14.8074H31.2398V15.5074H34.8649V14.8074ZM27.0106 2.21557C27.8165 2.21557 28.4731 2.87221 28.4731 3.6781H29.1731C29.1731 2.48561 28.2031 1.51557 27.0106 1.51557V2.21557ZM25.5481 3.6781C25.5481 2.87221 26.2047 2.21557 27.0106 2.21557V1.51557C25.8181 1.51557 24.8481 2.48561 24.8481 3.6781H25.5481ZM27.0106 5.14062C26.2047 5.14062 25.5481 4.48398 25.5481 3.6781H24.8481C24.8481 4.87058 25.8181 5.84062 27.0106 5.84062V5.14062ZM28.4731 3.6781C28.4731 4.48398 27.8165 5.14062 27.0106 5.14062V5.84062C28.2031 5.84062 29.1731 4.87058 29.1731 3.6781H28.4731ZM25.3196 6.58351C23.4983 8.33833 22.4314 10.7681 22.4314 13.3449H23.1314C23.1314 10.9626 24.1177 8.71356 25.8053 7.0876L25.3196 6.58351ZM19.5063 14.5532C19.5063 10.8972 22.1258 7.83068 25.6264 7.17965L25.4984 6.49145C21.6705 7.20336 18.8063 10.5556 18.8063 14.5532H19.5063ZM19.5063 15.1574V14.5532H18.8063V15.1574H19.5063ZM22.7814 14.8074H19.1563V15.5074H22.7814V14.8074ZM22.4314 13.3449V15.1574H23.1314V13.3449H22.4314ZM31.5898 27.2409V23.6158H30.8898V27.2409H31.5898ZM34.8649 26.8909H31.2398V27.5909H34.8649V26.8909ZM34.5149 23.6158V27.2409H35.2149V23.6158H34.5149ZM31.2398 23.9658H34.8649V23.2658H31.2398V23.9658Z" fill="#2361A9"/>
</svg>
