<svg width="37" height="37" viewBox="0 0 37 37" fill="none" xmlns="http://www.w3.org/2000/svg">
<path d="M6.16665 27.75V27.4417C6.16665 24.8514 6.16665 23.5563 6.67074 22.567C7.11416 21.6967 7.82169 20.9892 8.69194 20.5458C9.68128 20.0417 10.9764 20.0417 13.5666 20.0417H23.4333C26.0236 20.0417 27.3187 20.0417 28.308 20.5458C29.1783 20.9892 29.8858 21.6967 30.3292 22.567C30.8333 23.5563 30.8333 24.8514 30.8333 27.4417V27.75M6.16665 27.75C4.46377 27.75 3.08331 29.1305 3.08331 30.8333C3.08331 32.5362 4.46377 33.9167 6.16665 33.9167C7.86952 33.9167 9.24998 32.5362 9.24998 30.8333C9.24998 29.1305 7.86952 27.75 6.16665 27.75ZM30.8333 27.75C29.1304 27.75 27.75 29.1305 27.75 30.8333C27.75 32.5362 29.1304 33.9167 30.8333 33.9167C32.5362 33.9167 33.9166 32.5362 33.9166 30.8333C33.9166 29.1305 32.5362 27.75 30.8333 27.75ZM18.5 27.75C16.7971 27.75 15.4166 29.1305 15.4166 30.8333C15.4166 32.5362 16.7971 33.9167 18.5 33.9167C20.2029 33.9167 21.5833 32.5362 21.5833 30.8333C21.5833 29.1305 20.2029 27.75 18.5 27.75ZM18.5 27.75V12.3333M9.24998 12.3333H27.75C29.1866 12.3333 29.905 12.3333 30.4716 12.0986C31.2271 11.7857 31.8273 11.1854 32.1403 10.4299C32.375 9.86332 32.375 9.14499 32.375 7.70834C32.375 6.27168 32.375 5.55336 32.1403 4.98673C31.8273 4.23123 31.2271 3.63098 30.4716 3.31804C29.905 3.08334 29.1866 3.08334 27.75 3.08334H9.24998C7.81333 3.08334 7.095 3.08334 6.52837 3.31804C5.77287 3.63098 5.17262 4.23123 4.85968 4.98673C4.62498 5.55336 4.62498 6.27168 4.62498 7.70834C4.62498 9.14499 4.62498 9.86332 4.85968 10.4299C5.17262 11.1854 5.77287 11.7857 6.52837 12.0986C7.095 12.3333 7.81333 12.3333 9.24998 12.3333Z" stroke="#2361A9" stroke-width="2" stroke-linecap="round" stroke-linejoin="round"/>
</svg>
