<svg width="41" height="53" viewBox="0 0 41 53" fill="none" xmlns="http://www.w3.org/2000/svg">
<path d="M18.4167 20.2708H11.4792C9.32768 20.2708 8.25193 20.2708 7.37657 20.5364C5.4057 21.1342 3.8634 22.6765 3.26554 24.6474C3 25.5228 3 28.2235 3 30.375M22.2708 7.9375C22.2708 11.769 19.1648 14.875 15.3333 14.875C11.5019 14.875 8.39583 11.769 8.39583 7.9375C8.39583 4.10602 11.5019 1 15.3333 1C19.1648 1 22.2708 4.10602 22.2708 7.9375Z" stroke="#2361A9" stroke-width="2" stroke-linecap="round" stroke-linejoin="round"/>
<path d="M31.061 31C32.7179 31 34.061 29.6569 34.061 28C34.061 26.3431 32.7179 25 31.061 25C29.4042 25 28.061 26.3431 28.061 28C28.061 29.6569 29.4042 31 31.061 31Z" stroke="#2361A9" stroke-width="2" stroke-linecap="round" stroke-linejoin="round"/>
<path d="M28.3501 35.3711L28.9346 36.6856C29.1083 37.0768 29.3918 37.4093 29.7508 37.6426C30.1097 37.8759 30.5287 38.0001 30.9568 38C31.3849 38.0001 31.8038 37.8759 32.1628 37.6426C32.5217 37.4093 32.8053 37.0768 32.979 36.6856L33.5635 35.3711C33.7715 34.9047 34.1215 34.5159 34.5635 34.26C35.0082 34.0034 35.5228 33.8941 36.0335 33.9478L37.4635 34.1C37.8891 34.145 38.3187 34.0656 38.7001 33.8713C39.0816 33.6771 39.3984 33.3763 39.6123 33.0056C39.8265 32.635 39.9286 32.2103 39.9061 31.7829C39.8836 31.3555 39.7376 30.9438 39.4857 30.5978L38.639 29.4344C38.3375 29.0171 38.1764 28.5148 38.179 28C38.1789 27.4866 38.3415 26.9864 38.6435 26.5711L39.4901 25.4078C39.742 25.0618 39.888 24.6501 39.9105 24.2227C39.933 23.7953 39.831 23.3705 39.6168 23C39.4029 22.6292 39.086 22.3285 38.7046 22.1342C38.3232 21.94 37.8936 21.8605 37.4679 21.9056L36.0379 22.0578C35.5272 22.1114 35.0127 22.0021 34.5679 21.7456C34.125 21.4883 33.775 21.0974 33.5679 20.6289L32.979 19.3144C32.8053 18.9232 32.5217 18.5907 32.1628 18.3574C31.8038 18.1241 31.3849 17.9999 30.9568 18C30.5287 17.9999 30.1097 18.1241 29.7508 18.3574C29.3918 18.5907 29.1083 18.9232 28.9346 19.3144L28.3501 20.6289C28.143 21.0974 27.793 21.4883 27.3501 21.7456C26.9053 22.0021 26.3908 22.1114 25.8801 22.0578L24.4457 21.9056C24.02 21.8605 23.5904 21.94 23.209 22.1342C22.8276 22.3285 22.5107 22.6292 22.2968 23C22.0826 23.3705 21.9806 23.7953 22.0031 24.2227C22.0255 24.6501 22.1716 25.0618 22.4235 25.4078L23.2701 26.5711C23.5721 26.9864 23.7347 27.4866 23.7346 28C23.7347 28.5134 23.5721 29.0137 23.2701 29.4289L22.4235 30.5922C22.1716 30.9382 22.0255 31.3499 22.0031 31.7773C21.9806 32.2047 22.0826 32.6295 22.2968 33C22.5109 33.3706 22.8278 33.6712 23.2092 33.8654C23.5906 34.0596 24.02 34.1392 24.4457 34.0944L25.8757 33.9422C26.3863 33.8886 26.9009 33.9979 27.3457 34.2544C27.7902 34.511 28.1419 34.902 28.3501 35.3711Z" stroke="#2361A9" stroke-width="2" stroke-linecap="round" stroke-linejoin="round"/>
<path d="M18.5 37.2778L9.99997 42.0001M9.99997 42.0001L1.49997 37.2778M9.99997 42.0001L10 51.5001M19 46.0586V37.9415C19 37.5989 19 37.4276 18.9495 37.2748C18.9049 37.1396 18.8318 37.0155 18.7354 36.9108C18.6263 36.7925 18.4766 36.7093 18.177 36.5429L10.777 32.4318C10.4934 32.2742 10.3516 32.1954 10.2015 32.1645C10.0685 32.1372 9.93146 32.1372 9.79855 32.1645C9.64838 32.1954 9.50658 32.2742 9.22297 32.4318L1.82297 36.5429C1.52345 36.7093 1.37369 36.7925 1.26463 36.9108C1.16816 37.0155 1.09515 37.1396 1.05048 37.2748C1 37.4276 1 37.5989 1 37.9415V46.0586C1 46.4013 1 46.5726 1.05048 46.7254C1.09515 46.8606 1.16816 46.9847 1.26463 47.0893C1.37369 47.2077 1.52345 47.2909 1.82297 47.4573L9.22297 51.5684C9.50658 51.726 9.64838 51.8047 9.79855 51.8356C9.93146 51.863 10.0685 51.863 10.2015 51.8356C10.3516 51.8047 10.4934 51.726 10.777 51.5684L18.177 47.4573C18.4766 47.2909 18.6263 47.2077 18.7354 47.0893C18.8318 46.9847 18.9049 46.8606 18.9495 46.7254C19 46.5726 19 46.4013 19 46.0586Z" stroke="#2361A9" stroke-width="2" stroke-linecap="round" stroke-linejoin="round"/>
</svg>
