<svg width="49" height="51" viewBox="0 0 49 51" fill="none" xmlns="http://www.w3.org/2000/svg">
<path d="M24.8846 29.4511H13.9284C10.752 29.4511 9.16375 29.4511 7.8714 29.8431C4.96164 30.7258 2.68461 33.0028 1.80194 35.9125C1.40991 37.2049 1.40991 45.5439 1.40991 48.7204M29.861 11.2424C29.861 16.8991 25.2753 21.4848 19.6186 21.4848C13.9619 21.4848 9.37621 16.8991 9.37621 11.2424C9.37621 5.58567 13.9619 1 19.6186 1C25.2753 1 29.861 5.58567 29.861 11.2424Z" stroke="#2361A9" stroke-width="2" stroke-linecap="round" stroke-linejoin="round"/>
<path d="M36.22 40.2816C38.3215 40.2816 40.0252 38.5779 40.0252 36.4764C40.0252 34.3749 38.3215 32.6712 36.22 32.6712C34.1185 32.6712 32.4148 34.3749 32.4148 36.4764C32.4148 38.5779 34.1185 40.2816 36.22 40.2816Z" stroke="#2361A9" stroke-width="2" stroke-linecap="round" stroke-linejoin="round"/>
<path d="M32.7815 45.8259L33.5228 47.4931C33.7432 47.9894 34.1028 48.4111 34.5581 48.707C35.0134 49.0029 35.5448 49.1604 36.0878 49.1603C36.6308 49.1604 37.1622 49.0029 37.6174 48.707C38.0727 48.4111 38.4324 47.9894 38.6527 47.4931L39.394 45.8259C39.6579 45.2343 40.1018 44.7411 40.6624 44.4165C41.2266 44.0911 41.8792 43.9525 42.527 44.0205L44.3408 44.2136C44.8807 44.2707 45.4256 44.17 45.9094 43.9236C46.3932 43.6771 46.7951 43.2957 47.0664 42.8254C47.3381 42.3554 47.4675 41.8167 47.439 41.2746C47.4105 40.7325 47.2252 40.2103 46.9057 39.7714L45.8318 38.2958C45.4494 37.7665 45.2451 37.1294 45.2484 36.4764C45.2483 35.8252 45.4545 35.1907 45.8375 34.664L46.9114 33.1884C47.2309 32.7496 47.4161 32.2274 47.4446 31.6853C47.4731 31.1432 47.3437 30.6044 47.072 30.1344C46.8007 29.6642 46.3988 29.2827 45.915 29.0363C45.4312 28.7899 44.8863 28.6891 44.3464 28.7463L42.5326 28.9393C41.8849 29.0074 41.2322 28.8687 40.6681 28.5433C40.1063 28.217 39.6623 27.7211 39.3997 27.1269L38.6527 25.4597C38.4324 24.9634 38.0727 24.5417 37.6174 24.2458C37.1622 23.9499 36.6308 23.7924 36.0878 23.7925C35.5448 23.7924 35.0134 23.9499 34.5581 24.2458C34.1028 24.5417 33.7432 24.9634 33.5228 25.4597L32.7815 27.1269C32.5188 27.7211 32.0748 28.217 31.5131 28.5433C30.9489 28.8687 30.2963 29.0074 29.6486 28.9393L27.8291 28.7463C27.2892 28.6891 26.7443 28.7899 26.2605 29.0363C25.7767 29.2827 25.3748 29.6642 25.1035 30.1344C24.8318 30.6044 24.7024 31.1432 24.7309 31.6853C24.7594 32.2274 24.9447 32.7496 25.2642 33.1884L26.3381 34.664C26.721 35.1907 26.9273 35.8252 26.9272 36.4764C26.9273 37.1276 26.721 37.7621 26.3381 38.2888L25.2642 39.7644C24.9447 40.2032 24.7594 40.7254 24.7309 41.2675C24.7024 41.8096 24.8318 42.3484 25.1035 42.8184C25.3751 43.2884 25.777 43.6697 26.2608 43.916C26.7445 44.1624 27.2893 44.2633 27.8291 44.2065L29.6429 44.0135C30.2907 43.9454 30.9433 44.0841 31.5075 44.4095C32.0713 44.7349 32.5174 45.2308 32.7815 45.8259Z" stroke="#2361A9" stroke-width="2" stroke-linecap="round" stroke-linejoin="round"/>
</svg>
