<svg width="51" height="51" viewBox="0 0 51 51" fill="none" xmlns="http://www.w3.org/2000/svg">
<path d="M29.2266 10.9272H26.049C19.7005 10.9272 16.5263 10.9272 15.3214 12.0674C14.2798 13.053 13.8182 14.5049 14.0994 15.911C14.4248 17.5377 17.0162 19.3707 22.1992 23.0367L30.667 29.0261C35.85 32.6921 38.4415 34.5251 38.7668 36.1518C39.048 37.5579 38.5864 39.0098 37.5449 39.9954C36.3399 41.1356 33.1657 41.1356 26.8173 41.1356H17.4925M5.07896 40.0939C5.07896 43.5457 7.87718 46.3439 11.329 46.3439C14.7807 46.3439 17.579 43.5457 17.579 40.0939C17.579 36.6421 14.7807 33.8439 11.329 33.8439C7.87718 33.8439 5.07896 36.6421 5.07896 40.0939Z" stroke="#2361A9" stroke-width="2" stroke-linecap="round" stroke-linejoin="round"/>
<path d="M38.8477 21.8805C44.1306 21.8805 48.4132 17.5979 48.4132 12.315C48.4132 7.03213 44.1306 2.74951 38.8477 2.74951C33.5648 2.74951 29.2822 7.03213 29.2822 12.315C29.2822 17.5979 33.5648 21.8805 38.8477 21.8805Z" stroke="#2361A9" stroke-width="2" stroke-linecap="round" stroke-linejoin="round"/>
<g clip-path="url(#clip0_3208_2141)">
<path d="M35.3478 14.4818C35.3478 15.6784 36.3924 16.6484 37.6811 16.6484H40.0144C41.3031 16.6484 42.3478 15.6784 42.3478 14.4818C42.3478 13.2852 41.3031 12.3151 40.0144 12.3151H37.6811C36.3924 12.3151 35.3478 11.3451 35.3478 10.1484C35.3478 8.95182 36.3924 7.98177 37.6811 7.98177H40.0144C41.3031 7.98177 42.3478 8.95182 42.3478 10.1484M38.8478 6.89844V17.7318" stroke="#2361A9" stroke-width="2" stroke-linecap="round" stroke-linejoin="round"/>
</g>
<defs>
<clipPath id="clip0_3208_2141">
<rect width="14" height="13" fill="white" transform="translate(31.8478 5.81494)"/>
</clipPath>
</defs>
</svg>
